<?xml version="1.0" standalone="no"?>
<!DOCTYPE svg PUBLIC "-//W3C//DTD SVG 1.1//EN" "http://www.w3.org/Graphics/SVG/1.1/DTD/svg11.dtd">
<svg version="1.1" xmlns="http://www.w3.org/2000/svg" viewBox="0 0 1735.0020060326488 594.5215994664065" width="1735.0020060326488" height="594.5215994664065"><!-- svg-source:excalidraw --><metadata></metadata><defs><style class="style-fonts">
      @font-face { font-family: Excalifont; src: url(https://esm.sh/@excalidraw/excalidraw/dist/prod/fonts/Excalifont/Excalifont-Regular-a88b72a24fb54c9f94e3b5fdaa7481c9.woff2); }
      @font-face { font-family: Lilita One; src: url(https://esm.sh/@excalidraw/excalidraw/dist/prod/fonts/Lilita/Lilita-Regular-i7dPIFZ9Zz-WBtRtedDbYEF8RXi4EwQ.woff2); }</style></defs><g stroke-linecap="round" transform="translate(235.13374197950918 10) rotate(0 647.7609012758429 28)"><path d="M14 0 C285.66 -2.94, 555.5 -2.51, 1281.52 0 M14 0 C343.93 -4.25, 674.54 -4.42, 1281.52 0 M1281.52 0 C1290.76 1.27, 1294.14 4.47, 1295.52 14 M1281.52 0 C1290.42 -2.1, 1294.38 5.54, 1295.52 14 M1295.52 14 C1294.91 20.59, 1294.06 24.85, 1295.52 42 M1295.52 14 C1295.48 23.4, 1296.32 33.43, 1295.52 42 M1295.52 42 C1297.01 53.3, 1289.91 56.28, 1281.52 56 M1295.52 42 C1296.63 51.48, 1290.03 54.22, 1281.52 56 M1281.52 56 C933.96 56.1, 585.64 55.63, 14 56 M1281.52 56 C801.41 61.33, 320.29 61, 14 56 M14 56 C2.73 54.85, 0.51 52.26, 0 42 M14 56 C2.95 57.43, -1.43 52.12, 0 42 M0 42 C0.83 32.6, -1.02 22.39, 0 14 M0 42 C-0.66 34.08, 0.55 26.27, 0 14 M0 14 C1.22 3.27, 4.45 -0.75, 14 0 M0 14 C-0.98 3.52, 3.82 -2.25, 14 0" stroke="#1e1e1e" stroke-width="2" fill="none"></path></g><g transform="translate(700.2800650082818 25.5) rotate(0 182.6145782470703 12.5)"><text x="182.6145782470703" y="17.619999999999997" font-family="Excalifont, Xiaolai, sans-serif, Segoe UI Emoji" font-size="20px" fill="#1e1e1e" text-anchor="middle" style="white-space: pre;" direction="ltr" dominant-baseline="alphabetic">Typical CPython's source code layout</text></g><g stroke-linecap="round" transform="translate(235.71745598173095 73.74423613715231) rotate(0 158.0155277786541 33.16375654985197)"><path d="M16.58 0 C90.67 0.55, 164.2 3.44, 299.45 0 M16.58 0 C82.87 -0.97, 148.78 -1.84, 299.45 0 M299.45 0 C310.2 0.6, 315.4 4.53, 316.03 16.58 M299.45 0 C312.18 -0.36, 315.03 6.17, 316.03 16.58 M316.03 16.58 C317.79 27.23, 316.73 36.18, 316.03 49.75 M316.03 16.58 C315.78 28.66, 316.91 42.47, 316.03 49.75 M316.03 49.75 C315.1 62.64, 309.62 65.2, 299.45 66.33 M316.03 49.75 C317.15 60.09, 308.29 68.15, 299.45 66.33 M299.45 66.33 C185.17 64.84, 75.37 62.87, 16.58 66.33 M299.45 66.33 C218.95 67.51, 138.98 66.53, 16.58 66.33 M16.58 66.33 C3.97 64.55, 1.66 59.49, 0 49.75 M16.58 66.33 C3.24 66.46, -0.22 61.24, 0 49.75 M0 49.75 C1.61 38.36, -1.6 23.37, 0 16.58 M0 49.75 C-0.06 41.69, -0.98 35.17, 0 16.58 M0 16.58 C1.3 3.9, 7.5 -0.31, 16.58 0 M0 16.58 C-0.12 6.47, 6.55 -1.47, 16.58 0" stroke="#1e1e1e" stroke-width="2" fill="none"></path></g><g transform="translate(323.21214788392024 94.40799268700428) rotate(0 70.52083587646486 12.5)"><text x="70.52083587646484" y="17.619999999999997" font-family="Excalifont, Xiaolai, sans-serif, Segoe UI Emoji" font-size="20px" fill="#1e1e1e" text-anchor="middle" style="white-space: pre;" direction="ltr" dominant-baseline="alphabetic">Python module</text></g><g stroke-linecap="round" transform="translate(564.2844119640376 75.29396784173838) rotate(0 158.01552777865408 33.16375654985197)"><path d="M16.58 0 C91.95 0.51, 167.81 2.46, 299.45 0 M16.58 0 C100.45 -0.52, 184.83 0.1, 299.45 0 M299.45 0 C312.44 1.76, 316.83 7.16, 316.03 16.58 M299.45 0 C312.74 -1.66, 317.72 3.9, 316.03 16.58 M316.03 16.58 C315.04 29.44, 314.07 39.32, 316.03 49.75 M316.03 16.58 C316.6 29.48, 315.94 42.99, 316.03 49.75 M316.03 49.75 C314.92 60.65, 309.79 67.14, 299.45 66.33 M316.03 49.75 C315.48 62.61, 309.98 65.03, 299.45 66.33 M299.45 66.33 C209.49 65.03, 121.18 66.12, 16.58 66.33 M299.45 66.33 C190.9 65.68, 81.48 66.33, 16.58 66.33 M16.58 66.33 C5.94 67.63, 0.03 60.64, 0 49.75 M16.58 66.33 C6.48 65.56, 1.45 59.16, 0 49.75 M0 49.75 C-0.03 38.75, -0.91 27.41, 0 16.58 M0 49.75 C-0.85 39.19, 0.22 27.1, 0 16.58 M0 16.58 C-1.22 5.67, 6.94 0.73, 16.58 0 M0 16.58 C-0.89 4.3, 5.3 -1.18, 16.58 0" stroke="#1e1e1e" stroke-width="2" fill="none"></path></g><g transform="translate(638.2478538662269 95.95772439159035) rotate(0 84.05208587646484 12.5)"><text x="84.05208587646484" y="17.619999999999997" font-family="Excalifont, Xiaolai, sans-serif, Segoe UI Emoji" font-size="20px" fill="#1e1e1e" text-anchor="middle" style="white-space: pre;" direction="ltr" dominant-baseline="alphabetic">Extension module</text></g><g stroke-linecap="round" transform="translate(887.682539889562 76.01747000997676) rotate(0 158.01552777865413 33.16375654985197)"><path d="M16.58 0 C74.6 -2.11, 131.97 -0.11, 299.45 0 M16.58 0 C84.4 -0.76, 152.34 -0.14, 299.45 0 M299.45 0 C311.23 -0.16, 317.79 4.53, 316.03 16.58 M299.45 0 C309.86 1.76, 314.83 3.61, 316.03 16.58 M316.03 16.58 C314.81 25.32, 315.71 35.38, 316.03 49.75 M316.03 16.58 C316.25 27.38, 315.73 37.63, 316.03 49.75 M316.03 49.75 C318.02 61.8, 312.01 65.46, 299.45 66.33 M316.03 49.75 C316.75 61.71, 310.93 68.03, 299.45 66.33 M299.45 66.33 C190.71 67.03, 78.66 67.74, 16.58 66.33 M299.45 66.33 C226.27 66.51, 152.3 67.7, 16.58 66.33 M16.58 66.33 C4.9 67.68, -1.9 58.81, 0 49.75 M16.58 66.33 C3.43 64.46, -0.24 62.21, 0 49.75 M0 49.75 C0.67 36.28, 1.07 24.97, 0 16.58 M0 49.75 C1.09 42.65, 0.95 33.83, 0 16.58 M0 16.58 C-1.86 4.98, 6.43 -0.96, 16.58 0 M0 16.58 C-1.55 4.89, 3.36 1.51, 16.58 0" stroke="#1e1e1e" stroke-width="2" fill="none"></path></g><g transform="translate(966.593903544681 96.68122655982873) rotate(0 79.10416412353516 12.5)"><text x="79.10416412353516" y="17.619999999999997" font-family="Excalifont, Xiaolai, sans-serif, Segoe UI Emoji" font-size="20px" fill="#1e1e1e" text-anchor="middle" style="white-space: pre;" direction="ltr" dominant-baseline="alphabetic">Built-in function</text></g><g stroke-linecap="round" transform="translate(1213.2510363258725 76.01747000997688) rotate(0 158.01552777865413 33.16375654985197)"><path d="M16.58 0 C125.98 -1, 237.82 -1.75, 299.45 0 M16.58 0 C125.13 1.48, 235.39 1.85, 299.45 0 M299.45 0 C309.93 0.81, 316.06 6.57, 316.03 16.58 M299.45 0 C309.54 1.98, 314.3 3.84, 316.03 16.58 M316.03 16.58 C316.54 24.75, 316.84 33.91, 316.03 49.75 M316.03 16.58 C316.99 24.17, 315.94 32.35, 316.03 49.75 M316.03 49.75 C317.77 61.89, 308.56 66.71, 299.45 66.33 M316.03 49.75 C315.29 59.11, 310.05 65.58, 299.45 66.33 M299.45 66.33 C238.92 64.52, 177.44 66.26, 16.58 66.33 M299.45 66.33 C223.45 65.72, 148.16 65.33, 16.58 66.33 M16.58 66.33 C5.42 65.93, -1.52 59.73, 0 49.75 M16.58 66.33 C6.43 64.1, 0.5 60.32, 0 49.75 M0 49.75 C-0.13 43.18, -1.6 33.93, 0 16.58 M0 49.75 C0.78 43.51, 0.35 36.76, 0 16.58 M0 16.58 C1.77 5.59, 7.31 0.75, 16.58 0 M0 16.58 C1.87 7.38, 7.82 -1.6, 16.58 0" stroke="#1e1e1e" stroke-width="2" fill="none"></path></g><g transform="translate(1310.5582320427593 96.68122655982884) rotate(0 60.70833206176758 12.5)"><text x="60.70833206176758" y="17.619999999999997" font-family="Excalifont, Xiaolai, sans-serif, Segoe UI Emoji" font-size="20px" fill="#1e1e1e" text-anchor="middle" style="white-space: pre;" direction="ltr" dominant-baseline="alphabetic">Built-in type</text></g><g stroke-linecap="round"><g transform="translate(385.36390260086046 154.24001987694444) rotate(0 -1.3919495790991334 56.60607934709138)"><path d="M0.64 -1.15 C-0.08 17.55, -2.94 93.68, -3.35 112.67 M-0.48 0.86 C-1.49 19.68, -4.33 95.08, -4.59 113.92" stroke="#1e1e1e" stroke-width="2" fill="none"></path></g><g transform="translate(385.36390260086046 154.24001987694444) rotate(0 -1.3919495790991334 56.60607934709138)"><path d="M-12.49 90.2 C-11.3 98.29, -7.27 109.94, -4.59 113.92 M-12.49 90.2 C-9.28 96.07, -8.3 102.95, -4.59 113.92" stroke="#1e1e1e" stroke-width="2" fill="none"></path></g><g transform="translate(385.36390260086046 154.24001987694444) rotate(0 -1.3919495790991334 56.60607934709138)"><path d="M4.61 90.68 C-0.75 98.67, -3.24 110.14, -4.59 113.92 M4.61 90.68 C3.26 96.48, -0.31 103.23, -4.59 113.92" stroke="#1e1e1e" stroke-width="2" fill="none"></path></g></g><mask></mask><g stroke-linecap="round"><g transform="translate(712.9368628634807 157.95187362147598) rotate(0 2.3199218650315743 54.28617518165892)"><path d="M0.77 -0.56 C1.46 17.55, 3.24 89.67, 3.75 107.67 M-0.29 1.76 C0.81 20.09, 4.9 91, 6 108.73" stroke="#1e1e1e" stroke-width="2" fill="none"></path></g><g transform="translate(712.9368628634807 157.95187362147598) rotate(0 2.3199218650315743 54.28617518165892)"><path d="M-3.93 85.79 C-2.39 90.41, -0.3 96.69, 6 108.73 M-3.93 85.79 C-1.63 90.33, -0.19 94.79, 6 108.73" stroke="#1e1e1e" stroke-width="2" fill="none"></path></g><g transform="translate(712.9368628634807 157.95187362147598) rotate(0 2.3199218650315743 54.28617518165892)"><path d="M13.14 84.77 C10.09 89.77, 7.6 96.33, 6 108.73 M13.14 84.77 C11.93 89.43, 9.86 94.1, 6 108.73" stroke="#1e1e1e" stroke-width="2" fill="none"></path></g></g><mask></mask><g stroke-linecap="round"><g transform="translate(1034.0140348241728 158.8798636070076) rotate(0 0 56.142102053924745)"><path d="M0.32 0.14 C0.55 18.95, 0.78 93.75, 0.81 112.28 M-0.97 -0.83 C-0.78 18.23, 0.13 94.98, 0.28 113.81" stroke="#1e1e1e" stroke-width="2" fill="none"></path></g><g transform="translate(1034.0140348241728 158.8798636070076) rotate(0 0 56.142102053924745)"><path d="M-8.51 90.41 C-6.15 97.67, -4.17 103.05, 0.28 113.81 M-8.51 90.41 C-5.7 95.22, -3.98 101.12, 0.28 113.81" stroke="#1e1e1e" stroke-width="2" fill="none"></path></g><g transform="translate(1034.0140348241728 158.8798636070076) rotate(0 0 56.142102053924745)"><path d="M8.59 90.23 C6.61 97.58, 4.26 103.01, 0.28 113.81 M8.59 90.23 C7.62 95.14, 5.56 101.08, 0.28 113.81" stroke="#1e1e1e" stroke-width="2" fill="none"></path></g></g><mask></mask><g stroke-linecap="round"><g transform="translate(1355.0912775832617 157.95187362147598) rotate(0 0.46394189396824004 52.894225602559814)"><path d="M-1.04 -0.4 C-0.91 17.28, 1.24 88.57, 1.73 106.25 M0.61 -1.66 C0.58 15.64, 1.03 86.27, 1.2 104.37" stroke="#1e1e1e" stroke-width="2" fill="none"></path></g><g transform="translate(1355.0912775832617 157.95187362147598) rotate(0 0.46394189396824004 52.894225602559814)"><path d="M-7.53 80.94 C-4.88 91.18, -0.15 100.25, 1.2 104.37 M-7.53 80.94 C-4.6 88.04, -2.15 94.62, 1.2 104.37" stroke="#1e1e1e" stroke-width="2" fill="none"></path></g><g transform="translate(1355.0912775832617 157.95187362147598) rotate(0 0.46394189396824004 52.894225602559814)"><path d="M9.57 80.81 C5.78 90.95, 4.06 100.07, 1.2 104.37 M9.57 80.81 C7.52 87.87, 4.98 94.5, 1.2 104.37" stroke="#1e1e1e" stroke-width="2" fill="none"></path></g></g><mask></mask><g stroke-linecap="round" transform="translate(235.31339276059327 288.69550605360513) rotate(0 158.0155277786541 33.16375654985197)"><path d="M4.41 3.84 C4.41 3.84, 4.41 3.84, 4.41 3.84 M4.41 3.84 C4.41 3.84, 4.41 3.84, 4.41 3.84 M0.61 20.41 C7.1 12.22, 11.4 7.73, 18.32 0.03 M0.61 20.41 C4.9 15.2, 8.53 11.2, 18.32 0.03 M1.4 31.69 C9.65 21.11, 16.74 13.74, 28.95 -0.01 M1.4 31.69 C9.87 21.63, 19.43 11.53, 28.95 -0.01 M1.53 43.73 C14.18 31.88, 23.83 19.29, 39.58 -0.04 M1.53 43.73 C17.03 27.1, 31.41 8.97, 39.58 -0.04 M1.67 55.77 C14.74 37.93, 29.92 25.86, 50.21 -0.07 M1.67 55.77 C14.18 39.47, 28.71 24.25, 50.21 -0.07 M5.74 63.29 C17.73 47.58, 33.14 35.18, 60.84 -0.11 M5.74 63.29 C23.85 41.84, 44.56 18.52, 60.84 -0.11 M13.09 67.03 C31.19 46.7, 46.66 29.62, 70.82 0.61 M13.09 67.03 C36.07 41.93, 57.92 16.46, 70.82 0.61 M23.72 66.99 C44.39 44.98, 64.19 23.97, 81.45 0.58 M23.72 66.99 C44.84 42.53, 65.35 19.54, 81.45 0.58 M34.35 66.96 C53.06 46.26, 69.52 25.57, 92.08 0.54 M34.35 66.96 C54.9 44.3, 74.81 20.38, 92.08 0.54 M44.98 66.92 C65.18 45.54, 83.18 24.4, 102.71 0.51 M44.98 66.92 C57.98 52.27, 70.48 37.76, 102.71 0.51 M55.61 66.89 C69.01 53, 82.28 38.31, 113.34 0.47 M55.61 66.89 C74.42 47.01, 92.07 26.33, 113.34 0.47 M66.24 66.85 C83.33 49.63, 98.75 29.33, 123.97 0.44 M66.24 66.85 C79.37 53.25, 91.55 38.3, 123.97 0.44 M76.87 66.82 C93.15 45.69, 111.07 26.52, 134.6 0.4 M76.87 66.82 C98.27 41.98, 119.56 18.04, 134.6 0.4 M87.5 66.78 C108.33 42.66, 127.35 22, 145.23 0.37 M87.5 66.78 C100.4 53.51, 110.95 40.11, 145.23 0.37 M98.13 66.75 C117.46 45.46, 137.52 22.36, 155.86 0.34 M98.13 66.75 C117.07 45.19, 134.4 25.58, 155.86 0.34 M108.76 66.72 C125.24 48.26, 140.45 32.41, 166.49 0.3 M108.76 66.72 C122.69 50.11, 138.43 34.29, 166.49 0.3 M119.39 66.68 C135.21 49.41, 148.53 36.02, 177.12 0.27 M119.39 66.68 C133.17 50.57, 148.22 33.43, 177.12 0.27 M130.02 66.65 C152.48 42.41, 172.13 17.03, 187.75 0.23 M130.02 66.65 C143.66 50.78, 157.49 34.22, 187.75 0.23 M140.65 66.61 C158.42 47.84, 173.57 28.9, 198.38 0.2 M140.65 66.61 C162.33 42.65, 183.42 16.41, 198.38 0.2 M151.28 66.58 C164.51 52.12, 176.41 37.08, 209.01 0.16 M151.28 66.58 C166.28 49.41, 182.29 30.57, 209.01 0.16 M161.91 66.54 C183.09 44.07, 199.39 25.27, 219.64 0.13 M161.91 66.54 C176.9 50.6, 190.11 34.81, 219.64 0.13 M172.54 66.51 C196.26 39.85, 216.08 12.83, 230.27 0.09 M172.54 66.51 C184.65 51.71, 198.11 35.5, 230.27 0.09 M183.17 66.47 C197.74 50.73, 213.59 34.01, 240.9 0.06 M183.17 66.47 C196.89 50.81, 211.57 34.81, 240.9 0.06 M193.14 67.19 C214.92 41.24, 239.06 14.05, 250.87 0.78 M193.14 67.19 C207.77 52.01, 220.21 36.86, 250.87 0.78 M203.77 67.16 C216.9 50.36, 229.65 35.95, 261.5 0.74 M203.77 67.16 C222.46 45.46, 243.88 21.91, 261.5 0.74 M214.4 67.12 C231.01 52.31, 245.79 33, 272.13 0.71 M214.4 67.12 C225.75 53.34, 236.97 40.87, 272.13 0.71 M225.03 67.09 C235.31 52.14, 250.1 39.14, 282.76 0.68 M225.03 67.09 C247.62 42.97, 268.76 16.9, 282.76 0.68 M235.66 67.06 C254.87 41.03, 278.21 17.24, 293.39 0.64 M235.66 67.06 C251.61 50.02, 266.76 32.12, 293.39 0.64 M246.29 67.02 C258.25 51.66, 272.31 33.33, 304.02 0.61 M246.29 67.02 C265.23 45.5, 284.08 24.02, 304.02 0.61 M256.92 66.99 C270.6 51.68, 279.65 38.61, 311.37 4.35 M256.92 66.99 C276.36 44.74, 294.75 22.61, 311.37 4.35 M267.55 66.95 C285.84 46.37, 305.35 21.53, 316.1 11.1 M267.55 66.95 C278.85 54.93, 289.73 41.31, 316.1 11.1 M278.18 66.92 C288.98 51.86, 301.22 39.45, 316.23 23.14 M278.18 66.92 C286.15 57.52, 295.47 47.09, 316.23 23.14 M288.81 66.88 C297.96 55.44, 306.81 46.19, 316.37 35.19 M288.81 66.88 C295.9 57.58, 302.82 50.88, 316.37 35.19 M299.44 66.85 C303.67 64.16, 308.28 59.55, 316.5 47.23 M299.44 66.85 C303.1 62.82, 306.96 57.66, 316.5 47.23" stroke="#b2f2bb" stroke-width="1" fill="none"></path><path d="M16.58 0 C98.15 0.72, 181.74 -0.31, 299.45 0 M16.58 0 C106.7 2.4, 197.42 1.82, 299.45 0 M299.45 0 C310.04 1.51, 317.12 7.42, 316.03 16.58 M299.45 0 C310.49 -0.37, 314.12 3.54, 316.03 16.58 M316.03 16.58 C314.44 22.88, 316.74 33.82, 316.03 49.75 M316.03 16.58 C316.34 23.65, 315.66 30.52, 316.03 49.75 M316.03 49.75 C316.14 59.7, 310.76 64.62, 299.45 66.33 M316.03 49.75 C316.37 63.04, 312.75 66.57, 299.45 66.33 M299.45 66.33 C224.95 63.97, 152.6 64.82, 16.58 66.33 M299.45 66.33 C188.63 67.04, 77.59 67.41, 16.58 66.33 M16.58 66.33 C4.48 66.77, 0.71 59.18, 0 49.75 M16.58 66.33 C7.76 67.01, -1.54 60.49, 0 49.75 M0 49.75 C-0.49 42.82, 0.7 34.18, 0 16.58 M0 49.75 C0.83 39.17, -0.71 26.77, 0 16.58 M0 16.58 C-0.21 6.39, 3.55 -0.92, 16.58 0 M0 16.58 C1.44 5.37, 3.62 1.78, 16.58 0" stroke="#1e1e1e" stroke-width="2" fill="none"></path></g><g transform="translate(321.08933466278256 310.35926260345707) rotate(0 72.23958587646486 11.5)"><text x="72.23958587646484" y="18.53" font-family="Lilita One, sans-serif, Segoe UI Emoji" font-size="20px" fill="#1e1e1e" text-anchor="middle" style="white-space: pre;" direction="ltr" dominant-baseline="alphabetic">Lib/&lt;module&gt;.py</text></g><g stroke-linecap="round" transform="translate(232.81888245196959 364.3634606621468) rotate(0 158.01552777865413 33.16375654985197)"><path d="M4.41 3.84 C4.41 3.84, 4.41 3.84, 4.41 3.84 M4.41 3.84 C4.41 3.84, 4.41 3.84, 4.41 3.84 M0.61 20.41 C4.95 13.04, 12.2 7.1, 18.32 0.03 M0.61 20.41 C6.34 14.63, 9.81 10.48, 18.32 0.03 M1.4 31.69 C5.85 23.29, 14.23 18.54, 28.95 -0.01 M1.4 31.69 C9.71 23.52, 17.13 13.9, 28.95 -0.01 M1.53 43.73 C9.1 34.11, 17.87 23.78, 39.58 -0.04 M1.53 43.73 C16.91 27.21, 32.16 8.54, 39.58 -0.04 M1.67 55.77 C21.06 35.38, 38.09 11.94, 50.21 -0.07 M1.67 55.77 C19.37 36.72, 34.72 17.69, 50.21 -0.07 M5.74 63.29 C24.7 41.53, 45.73 19.15, 60.84 -0.11 M5.74 63.29 C26.14 40.19, 45.81 16.54, 60.84 -0.11 M13.09 67.03 C29.5 46.23, 48.94 23.84, 70.82 0.61 M13.09 67.03 C32.68 44.71, 51.39 23.79, 70.82 0.61 M23.72 66.99 C45.38 41.32, 66.35 19.45, 81.45 0.58 M23.72 66.99 C44.38 42.87, 63.98 19.77, 81.45 0.58 M34.35 66.96 C56.09 41.68, 74.01 18.06, 92.08 0.54 M34.35 66.96 C53.35 42.65, 74.29 19.73, 92.08 0.54 M44.98 66.92 C64.24 45.15, 82.76 24.14, 102.71 0.51 M44.98 66.92 C58.2 53.61, 70.87 38.15, 102.71 0.51 M55.61 66.89 C77.02 42.15, 98.62 17.07, 113.34 0.47 M55.61 66.89 C76.88 41.84, 96.96 19.45, 113.34 0.47 M66.24 66.85 C88.44 43.53, 107.82 19.46, 123.97 0.44 M66.24 66.85 C84.6 44.44, 103.61 22.86, 123.97 0.44 M76.87 66.82 C98.52 43.14, 116.76 19.11, 134.6 0.4 M76.87 66.82 C96.09 45.65, 112.65 25.02, 134.6 0.4 M87.5 66.78 C100.89 52.05, 110.47 39.65, 145.23 0.37 M87.5 66.78 C110.78 40.54, 131.74 16.25, 145.23 0.37 M98.13 66.75 C110.82 52.37, 124.99 36.55, 155.86 0.34 M98.13 66.75 C119.36 40.98, 141.27 17.17, 155.86 0.34 M108.76 66.72 C122.24 51.26, 136.45 35.36, 166.49 0.3 M108.76 66.72 C130.27 42.99, 151.97 16.99, 166.49 0.3 M119.39 66.68 C136.61 44.97, 154 24.59, 177.12 0.27 M119.39 66.68 C137.99 44.49, 158.08 23.25, 177.12 0.27 M130.02 66.65 C145.68 47.39, 161.67 26.04, 187.75 0.23 M130.02 66.65 C154.05 39.79, 175.8 14.42, 187.75 0.23 M140.65 66.61 C163.52 41.71, 186.89 12.53, 198.38 0.2 M140.65 66.61 C160.4 43.09, 182.08 20.74, 198.38 0.2 M151.28 66.58 C163.52 49.74, 177.52 33.55, 209.01 0.16 M151.28 66.58 C167.49 47.27, 183.28 28.53, 209.01 0.16 M161.91 66.54 C177.89 50.48, 192.04 30.77, 219.64 0.13 M161.91 66.54 C175.24 49.92, 188.98 34.28, 219.64 0.13 M172.54 66.51 C195.61 38.88, 218.41 15.74, 230.27 0.09 M172.54 66.51 C191.79 44.15, 212.75 20.83, 230.27 0.09 M183.17 66.47 C195.36 50.38, 208.38 35.01, 240.9 0.06 M183.17 66.47 C205.14 38.62, 228.63 13.5, 240.9 0.06 M193.14 67.19 C211.48 46.04, 226.54 29.54, 250.87 0.78 M193.14 67.19 C205.45 53.64, 216.97 38.22, 250.87 0.78 M203.77 67.16 C220.77 48.56, 239.02 28.19, 261.5 0.74 M203.77 67.16 C217.03 50.81, 231.01 34.84, 261.5 0.74 M214.4 67.12 C233.23 43.2, 255.25 22.84, 272.13 0.71 M214.4 67.12 C227.03 51.76, 240.7 36.28, 272.13 0.71 M225.03 67.09 C241.4 45.05, 260.54 25.42, 282.76 0.68 M225.03 67.09 C247.11 42.98, 270.14 16.31, 282.76 0.68 M235.66 67.06 C256.19 45.22, 276.78 21.5, 293.39 0.64 M235.66 67.06 C249.91 48.14, 266.21 31.79, 293.39 0.64 M246.29 67.02 C264.34 43.92, 287.02 21.15, 304.02 0.61 M246.29 67.02 C261.64 49.3, 276.44 33.61, 304.02 0.61 M256.92 66.99 C269.45 54.03, 280.76 38.67, 311.37 4.35 M256.92 66.99 C272.69 49.87, 287.41 33.77, 311.37 4.35 M267.55 66.95 C284.35 49.04, 296.49 32.09, 316.1 11.1 M267.55 66.95 C283.16 48.42, 296.92 32.27, 316.1 11.1 M278.18 66.92 C287.7 55.93, 295.9 46.8, 316.23 23.14 M278.18 66.92 C289.43 53.48, 302.34 39.39, 316.23 23.14 M288.81 66.88 C298.36 55.42, 310.63 41.6, 316.37 35.19 M288.81 66.88 C293.32 60.7, 300.61 54.66, 316.37 35.19 M299.44 66.85 C307.34 60.76, 313.34 52.39, 316.5 47.23 M299.44 66.85 C305.97 58.93, 312.79 51.52, 316.5 47.23" stroke="#a5d8ff" stroke-width="1" fill="none"></path><path d="M16.58 0 C106.56 1.17, 193.74 -0.9, 299.45 0 M16.58 0 C113.29 1.26, 210.54 1.34, 299.45 0 M299.45 0 C311.15 1.25, 316.91 3.87, 316.03 16.58 M299.45 0 C311.89 -0.78, 314.83 6.04, 316.03 16.58 M316.03 16.58 C316.35 26.36, 315.49 37.79, 316.03 49.75 M316.03 16.58 C316.48 26.87, 316.27 36.79, 316.03 49.75 M316.03 49.75 C314.49 62.33, 311.66 67.24, 299.45 66.33 M316.03 49.75 C313.82 58.7, 310.26 67.32, 299.45 66.33 M299.45 66.33 C242.48 66.41, 186.88 66.29, 16.58 66.33 M299.45 66.33 C212.57 65.45, 125.86 66.09, 16.58 66.33 M16.58 66.33 C7.44 65.55, -1.2 60.1, 0 49.75 M16.58 66.33 C4.31 66.91, 0.92 62.04, 0 49.75 M0 49.75 C-0.97 38.27, 1.76 28.53, 0 16.58 M0 49.75 C-0.92 41.4, -0.66 32.02, 0 16.58 M0 16.58 C1.49 5.01, 6.27 -1.74, 16.58 0 M0 16.58 C0.1 5.3, 6.09 0.48, 16.58 0" stroke="#1e1e1e" stroke-width="2" fill="none"></path></g><g transform="translate(293.8344102306237 386.02721721199873) rotate(0 97 11.5)"><text x="97" y="18.53" font-family="Lilita One, sans-serif, Segoe UI Emoji" font-size="20px" fill="#1e1e1e" text-anchor="middle" style="white-space: pre;" direction="ltr" dominant-baseline="alphabetic">Modules/_&lt;module&gt;.c</text></g><g stroke-linecap="round"><g transform="translate(106.45588943179064 306.89197871295494) rotate(0 59.037632125800855 46.56490612365661)"><path d="M-1.14 -0.93 C5.26 11.46, 19.11 58.35, 39.04 73.91 C58.96 89.47, 105.14 89.27, 118.4 92.42 M0.46 1.2 C7.18 13.28, 21.73 56.81, 41.29 72.17 C60.85 87.53, 104.83 89.76, 117.8 93.37" stroke="#1e1e1e" stroke-width="2" fill="none"></path></g><g transform="translate(106.45588943179064 306.89197871295494) rotate(0 59.037632125800855 46.56490612365661)"><path d="M93.18 97.72 C100.3 94.96, 111.72 95.43, 117.8 93.37 M93.18 97.72 C98.4 96.25, 104.38 95.11, 117.8 93.37" stroke="#1e1e1e" stroke-width="2" fill="none"></path></g><g transform="translate(106.45588943179064 306.89197871295494) rotate(0 59.037632125800855 46.56490612365661)"><path d="M96.14 80.88 C102.16 84.01, 112.55 90.4, 117.8 93.37 M96.14 80.88 C100.72 83.46, 105.99 86.39, 117.8 93.37" stroke="#1e1e1e" stroke-width="2" fill="none"></path></g></g><mask></mask><g transform="translate(10 240.37065706216868) rotate(0 100.05208587646484 25)"><text x="0" y="17.619999999999997" font-family="Excalifont, Xiaolai, sans-serif, Segoe UI Emoji" font-size="20px" fill="#1e1e1e" text-anchor="start" style="white-space: pre;" direction="ltr" dominant-baseline="alphabetic">If there's also a</text><text x="0" y="42.62" font-family="Excalifont, Xiaolai, sans-serif, Segoe UI Emoji" font-size="20px" fill="#1e1e1e" text-anchor="start" style="white-space: pre;" direction="ltr" dominant-baseline="alphabetic">C accelerator module</text></g><g stroke-linecap="round" transform="translate(233.65041760800017 439.19991183448064) rotate(0 158.0155277786541 33.163756549851996)"><path d="M4.41 3.84 C4.41 3.84, 4.41 3.84, 4.41 3.84 M4.41 3.84 C4.41 3.84, 4.41 3.84, 4.41 3.84 M0.61 20.41 C2.66 17.27, 7.76 13.58, 18.32 0.03 M0.61 20.41 C7.86 13.1, 13.41 6.08, 18.32 0.03 M1.4 31.69 C10.74 21.47, 15.74 10.67, 28.95 -0.01 M1.4 31.69 C9.34 22.8, 17.26 12.6, 28.95 -0.01 M1.53 43.73 C14.91 25.44, 30 10.48, 39.58 -0.04 M1.53 43.73 C13.53 30.86, 24.91 17.74, 39.58 -0.04 M1.67 55.77 C15.53 42.6, 27.28 28.51, 50.21 -0.07 M1.67 55.77 C15.63 39.12, 30.18 24.39, 50.21 -0.07 M5.74 63.29 C27.43 38.5, 46.42 14.01, 60.84 -0.11 M5.74 63.29 C20.67 45.29, 35.76 28.69, 60.84 -0.11 M13.09 67.03 C26.51 51.45, 38.67 34.89, 70.82 0.61 M13.09 67.03 C33.4 44.4, 52.63 21.76, 70.82 0.61 M23.72 66.99 C40.11 47.86, 55.04 28.91, 81.45 0.58 M23.72 66.99 C42.65 45.24, 59.11 26.56, 81.45 0.58 M34.35 66.96 C55.5 43.36, 74.42 17.9, 92.08 0.54 M34.35 66.96 C54.29 43.24, 76.38 18.5, 92.08 0.54 M44.98 66.92 C56.17 53.59, 70.01 41.02, 102.71 0.51 M44.98 66.92 C67.16 42.44, 87.25 19.05, 102.71 0.51 M55.61 66.89 C67.16 52.87, 79.63 37.06, 113.34 0.47 M55.61 66.89 C72.47 47.99, 89.29 28.25, 113.34 0.47 M66.24 66.85 C87.11 43.2, 106.39 23.1, 123.97 0.44 M66.24 66.85 C83.73 46.69, 102.84 26.68, 123.97 0.44 M76.87 66.82 C89.26 54.12, 100.94 38.95, 134.6 0.4 M76.87 66.82 C91.64 49.99, 107.12 31.78, 134.6 0.4 M87.5 66.78 C103.19 46.74, 118.77 30.77, 145.23 0.37 M87.5 66.78 C106.74 46.48, 123.55 25.91, 145.23 0.37 M98.13 66.75 C109.19 52.06, 124.06 37.47, 155.86 0.34 M98.13 66.75 C109.97 50.98, 124.09 35.97, 155.86 0.34 M108.76 66.72 C124.46 46.04, 142.46 26.86, 166.49 0.3 M108.76 66.72 C123.6 50.66, 138.3 33.86, 166.49 0.3 M119.39 66.68 C136.56 48.32, 155.09 27.86, 177.12 0.27 M119.39 66.68 C139.15 43.75, 161.06 19.79, 177.12 0.27 M130.02 66.65 C145.66 46.78, 160.76 27.96, 187.75 0.23 M130.02 66.65 C148.07 46.55, 167.21 24.62, 187.75 0.23 M140.65 66.61 C154.81 51.17, 168.96 31.24, 198.38 0.2 M140.65 66.61 C163.16 39.84, 187.6 13.95, 198.38 0.2 M151.28 66.58 C170.9 43.83, 194.18 17.82, 209.01 0.16 M151.28 66.58 C162.69 52.27, 173.87 40.6, 209.01 0.16 M161.91 66.54 C183.37 40.75, 205.8 14.65, 219.64 0.13 M161.91 66.54 C182.18 43, 202.59 20.44, 219.64 0.13 M172.54 66.51 C192.31 46.75, 208.57 24.78, 230.27 0.09 M172.54 66.51 C190.12 44.7, 209.93 22.9, 230.27 0.09 M183.17 66.47 C207.09 38.36, 227.1 12.15, 240.9 0.06 M183.17 66.47 C205.29 41.37, 226.89 14.74, 240.9 0.06 M193.14 67.19 C215.63 44.08, 234.75 16.9, 250.87 0.78 M193.14 67.19 C214.92 41.22, 238.1 13.98, 250.87 0.78 M203.77 67.16 C221.26 50.06, 234.44 29.87, 261.5 0.74 M203.77 67.16 C221.15 46.41, 239.37 24.58, 261.5 0.74 M214.4 67.12 C236.59 41.96, 254.83 21.67, 272.13 0.71 M214.4 67.12 C229.11 50.2, 243.8 33.01, 272.13 0.71 M225.03 67.09 C248.94 41.87, 270.85 13.33, 282.76 0.68 M225.03 67.09 C245.5 43.56, 264.65 21.53, 282.76 0.68 M235.66 67.06 C259.63 39.65, 279.53 13.76, 293.39 0.64 M235.66 67.06 C248.6 53.17, 260.82 39.51, 293.39 0.64 M246.29 67.02 C258.38 52.61, 272.96 35.89, 304.02 0.61 M246.29 67.02 C261.04 48.29, 276.73 30.05, 304.02 0.61 M256.92 66.99 C270.51 52.92, 281.41 38.98, 311.37 4.35 M256.92 66.99 C276.52 45.39, 295.21 24.3, 311.37 4.35 M267.55 66.95 C279.69 55.68, 289.63 43.2, 316.1 11.1 M267.55 66.95 C283.74 46.96, 300.35 27.04, 316.1 11.1 M278.18 66.92 C293.1 48.05, 308.87 33.44, 316.23 23.14 M278.18 66.92 C293.31 49.44, 307.54 33.38, 316.23 23.14 M288.81 66.88 C295.64 57.71, 307.93 48.9, 316.37 35.19 M288.81 66.88 C299.58 54.53, 309.62 41.82, 316.37 35.19 M299.44 66.85 C304.61 58.76, 311.05 53.42, 316.5 47.23 M299.44 66.85 C302.56 61.87, 305.88 59.09, 316.5 47.23" stroke="#ffc9c9" stroke-width="1" fill="none"></path><path d="M16.58 0 C124.31 1.32, 232.65 -0.98, 299.45 0 M16.58 0 C96.7 0.49, 176 0.3, 299.45 0 M299.45 0 C309.39 1.72, 315.3 4.07, 316.03 16.58 M299.45 0 C308.53 -2, 316.45 6.26, 316.03 16.58 M316.03 16.58 C317.43 27.66, 315.03 34.76, 316.03 49.75 M316.03 16.58 C315.7 24.42, 316.34 31.42, 316.03 49.75 M316.03 49.75 C317.5 62.71, 309.13 66.39, 299.45 66.33 M316.03 49.75 C315.94 61.48, 309.67 64.41, 299.45 66.33 M299.45 66.33 C207.52 66.65, 115.65 65.92, 16.58 66.33 M299.45 66.33 C231.6 64.92, 162.89 64.88, 16.58 66.33 M16.58 66.33 C7.15 64.86, -1.92 60.05, 0 49.75 M16.58 66.33 C7.62 66.73, -1.26 59.77, 0 49.75 M0 49.75 C0.51 36.93, -1.07 25.76, 0 16.58 M0 49.75 C0.14 40.62, 0.65 33.38, 0 16.58 M0 16.58 C-0.23 6.22, 6.26 -1.45, 16.58 0 M0 16.58 C-1.52 3.75, 3.74 -0.61, 16.58 0" stroke="#1e1e1e" stroke-width="2" fill="none"></path></g><g transform="translate(273.8951095101894 460.86366838433264) rotate(0 117.77083587646483 11.5)"><text x="117.77083587646484" y="18.53" font-family="Lilita One, sans-serif, Segoe UI Emoji" font-size="20px" fill="#1e1e1e" text-anchor="middle" style="white-space: pre;" direction="ltr" dominant-baseline="alphabetic">Lib/test/test_&lt;module&gt;.py</text></g><g stroke-linecap="round" transform="translate(1598.1958288215733 15.86133526499016) rotate(0 60.284887280112684 27.440033682513523)"><path d="M3.65 3.17 C3.65 3.17, 3.65 3.17, 3.65 3.17 M3.65 3.17 C3.65 3.17, 3.65 3.17, 3.65 3.17 M0.5 18.99 C6.98 11.84, 13.49 4.39, 16.91 0.12 M0.5 18.99 C6.36 12.15, 12.4 4.11, 16.91 0.12 M0.64 31.03 C7.88 23.16, 14.22 17.05, 27.54 0.09 M0.64 31.03 C10.49 20.94, 19.22 9.32, 27.54 0.09 M0.77 43.07 C13.46 29.79, 22 18.32, 38.17 0.05 M0.77 43.07 C14.59 26.02, 30.28 8.88, 38.17 0.05 M4.18 51.34 C20.97 32.86, 34.04 15.93, 48.8 0.02 M4.18 51.34 C21.64 29.85, 40.24 9.76, 48.8 0.02 M12.19 54.32 C30.4 35.98, 46.7 18, 59.43 -0.02 M12.19 54.32 C26.74 38.07, 38.67 22.23, 59.43 -0.02 M22.16 55.04 C36.47 38.96, 56.24 16.66, 70.06 -0.05 M22.16 55.04 C37.69 36.68, 54.99 18.04, 70.06 -0.05 M32.79 55.01 C50.17 36.6, 65.19 19.03, 80.03 0.67 M32.79 55.01 C47.83 36.93, 64.04 18.71, 80.03 0.67 M43.42 54.97 C56.84 39.18, 70.81 26.33, 90.66 0.63 M43.42 54.97 C54.91 39.9, 69.5 26.81, 90.66 0.63 M54.05 54.94 C69.15 35.62, 86.82 16.98, 101.29 0.6 M54.05 54.94 C69.11 35.64, 86.27 18.77, 101.29 0.6 M64.68 54.9 C81.91 33.81, 100.58 13.76, 111.27 1.32 M64.68 54.9 C80.14 35.5, 97.61 17.01, 111.27 1.32 M75.31 54.87 C88.68 37.57, 103.62 23.5, 118.61 5.06 M75.31 54.87 C84.89 44.13, 95.12 30.64, 118.61 5.06 M85.95 54.84 C98.81 38.97, 112.56 27.71, 120.72 14.84 M85.95 54.84 C99.64 38.43, 112.86 23.69, 120.72 14.84 M95.92 55.56 C105.92 44.67, 115.46 35.65, 120.85 26.88 M95.92 55.56 C103.51 45.51, 111.7 36.57, 120.85 26.88 M107.21 54.77 C111.52 52.25, 111.98 48.92, 120.33 39.67 M107.21 54.77 C113.29 48.09, 117.34 42.99, 120.33 39.67" stroke="#ffc9c9" stroke-width="1" fill="none"></path><path d="M13.72 0 C37.88 -0.94, 63.35 1.97, 106.85 0 M13.72 0 C34.15 -0.86, 53.65 -0.55, 106.85 0 M106.85 0 C116.21 -1.15, 119.02 5.87, 120.57 13.72 M106.85 0 C117.75 1.18, 119.16 6.42, 120.57 13.72 M120.57 13.72 C121.83 21.91, 120.5 32.34, 120.57 41.16 M120.57 13.72 C119.85 24.63, 121.15 35.39, 120.57 41.16 M120.57 41.16 C119.37 51.96, 114.44 56.81, 106.85 54.88 M120.57 41.16 C121.84 49.58, 117.21 53.75, 106.85 54.88 M106.85 54.88 C77.16 56.62, 50.85 56.65, 13.72 54.88 M106.85 54.88 C82.41 54.77, 58.7 54.77, 13.72 54.88 M13.72 54.88 C4.68 55.1, -0.88 49.27, 0 41.16 M13.72 54.88 C2.82 55.34, 0.88 52.27, 0 41.16 M0 41.16 C0.89 36.07, 0.69 28.91, 0 13.72 M0 41.16 C-0.34 34.06, 0 26.07, 0 13.72 M0 13.72 C-0.37 2.9, 4.78 -1.12, 13.72 0 M0 13.72 C-1.47 2.51, 6.23 0.28, 13.72 0" stroke="transparent" stroke-width="2" fill="none"></path></g><g transform="translate(1628.9494661016856 30.801368947503676) rotate(0 29.53125 12.5)"><text x="29.53125" y="17.619999999999997" font-family="Excalifont, Xiaolai, sans-serif, Segoe UI Emoji" font-size="20px" fill="#1e1e1e" text-anchor="middle" style="white-space: pre;" direction="ltr" dominant-baseline="alphabetic">Tests</text></g><g stroke-linecap="round" transform="translate(1600.2745874120924 88.20325233883312) rotate(0 60.284887280112684 30)"><path d="M3.99 3.47 C3.99 3.47, 3.99 3.47, 3.99 3.47 M3.99 3.47 C3.99 3.47, 3.99 3.47, 3.99 3.47 M0.85 19.29 C8.23 10.45, 14.12 4.62, 17.25 0.42 M0.85 19.29 C7.22 12.24, 13.41 6.09, 17.25 0.42 M0.98 31.33 C8.6 20.04, 17.22 11.09, 27.88 0.38 M0.98 31.33 C7.98 24.29, 13.23 16.84, 27.88 0.38 M0.46 44.12 C17.31 25.33, 30.09 9.75, 38.51 0.35 M0.46 44.12 C10.53 31.35, 21.2 18.98, 38.51 0.35 M2.56 53.9 C15.35 38.23, 27.26 25.64, 49.14 0.31 M2.56 53.9 C18.73 36.14, 32.46 17.34, 49.14 0.31 M8.59 59.15 C23.29 42.71, 35.48 29.37, 59.77 0.28 M8.59 59.15 C27.56 36.18, 48.27 15.66, 59.77 0.28 M17.91 60.62 C38.92 39.2, 58.6 15.98, 69.74 1 M17.91 60.62 C33.93 42.45, 50.08 24.24, 69.74 1 M28.54 60.59 C46.18 44.85, 61.15 27.24, 80.37 0.97 M28.54 60.59 C42 44.05, 56.88 28.32, 80.37 0.97 M39.17 60.55 C49.67 48.86, 58.27 37.04, 91 0.93 M39.17 60.55 C52.88 45.16, 67.22 29.53, 91 0.93 M49.8 60.52 C62.9 45.21, 75 29.48, 101.63 0.9 M49.8 60.52 C65.77 43.69, 80.44 25.93, 101.63 0.9 M60.43 60.48 C79.46 37.13, 100.66 17.43, 111.61 1.62 M60.43 60.48 C77.62 40.18, 93.94 22.75, 111.61 1.62 M71.06 60.45 C86.98 43.77, 104.09 23.73, 118.3 6.11 M71.06 60.45 C83.07 45.14, 96.13 31.73, 118.3 6.11 M81.69 60.41 C95.61 47.75, 108.17 33.55, 121.06 15.13 M81.69 60.41 C97.41 44.08, 110.98 27.04, 121.06 15.13 M92.32 60.38 C104.85 46.87, 112.99 34.56, 121.19 27.17 M92.32 60.38 C101.7 49.48, 112.35 36.47, 121.19 27.17 M102.95 60.35 C109.83 53.31, 113.5 44.87, 121.32 39.21 M102.95 60.35 C109.25 52.29, 115.61 44.7, 121.32 39.21" stroke="#b2f2bb" stroke-width="1" fill="none"></path><path d="M15 0 C41.57 1.07, 65.37 -1.11, 105.57 0 M15 0 C47.07 -0.21, 81.45 -0.27, 105.57 0 M105.57 0 C114.11 -1.97, 122.53 6.8, 120.57 15 M105.57 0 C113.33 0.76, 118.61 5.36, 120.57 15 M120.57 15 C120.14 22.1, 121.02 26.78, 120.57 45 M120.57 15 C120.95 26.47, 121.38 38.07, 120.57 45 M120.57 45 C120.07 55.79, 116.04 60.54, 105.57 60 M120.57 45 C119.74 52.89, 114.34 60.51, 105.57 60 M105.57 60 C85.48 60.83, 64.69 57.91, 15 60 M105.57 60 C86.66 60.99, 67.73 60.36, 15 60 M15 60 C4.22 61.28, -1.2 55.68, 0 45 M15 60 C6.22 61.47, -0.98 53.02, 0 45 M0 45 C-1.82 34.82, -1.27 21.12, 0 15 M0 45 C0.67 37.51, -0.82 28.31, 0 15 M0 15 C0.27 6.42, 5.25 -0.52, 15 0 M0 15 C0.34 4.67, 3.06 1.3, 15 0" stroke="transparent" stroke-width="2" fill="none"></path></g><g transform="translate(1625.8198926304376 93.20325233883312) rotate(0 34.73958206176758 25)"><text x="34.73958206176758" y="17.619999999999997" font-family="Excalifont, Xiaolai, sans-serif, Segoe UI Emoji" font-size="20px" fill="#1e1e1e" text-anchor="middle" style="white-space: pre;" direction="ltr" dominant-baseline="alphabetic">Python</text><text x="34.73958206176758" y="42.62" font-family="Excalifont, Xiaolai, sans-serif, Segoe UI Emoji" font-size="20px" fill="#1e1e1e" text-anchor="middle" style="white-space: pre;" direction="ltr" dominant-baseline="alphabetic">code</text></g><g stroke-linecap="round" transform="translate(1602.7691611603623 155.5560457060044) rotate(0 60.284887280112684 27.44003368251353)"><path d="M3.65 3.17 C3.65 3.17, 3.65 3.17, 3.65 3.17 M3.65 3.17 C3.65 3.17, 3.65 3.17, 3.65 3.17 M0.5 18.99 C7.32 11.54, 12.32 3.49, 16.91 0.12 M0.5 18.99 C5.79 11.92, 11.7 6.15, 16.91 0.12 M0.64 31.03 C5.39 22.76, 10.52 18.92, 27.54 0.09 M0.64 31.03 C7.33 23.1, 14.6 14.65, 27.54 0.09 M0.77 43.07 C9.15 31.61, 21.03 21.92, 38.17 0.05 M0.77 43.07 C14.11 28.79, 26.1 13.41, 38.17 0.05 M4.18 51.34 C19.32 33.25, 38.48 10, 48.8 0.02 M4.18 51.34 C18.12 34.31, 31.86 19.7, 48.8 0.02 M12.19 54.32 C29.62 34.77, 46.85 11.83, 59.43 -0.02 M12.19 54.32 C24.39 40, 38.26 25.68, 59.43 -0.02 M22.16 55.04 C41.14 32.37, 61.74 12.21, 70.06 -0.05 M22.16 55.04 C33.82 41.53, 46.5 26.68, 70.06 -0.05 M32.79 55.01 C44.43 42.07, 54.59 29.79, 80.03 0.67 M32.79 55.01 C47.22 40.15, 60.39 24.12, 80.03 0.67 M43.42 54.97 C55.85 41.51, 66.16 27.56, 90.66 0.63 M43.42 54.97 C54.54 42.81, 64.34 31.85, 90.66 0.63 M54.05 54.94 C68.8 39.28, 84.09 18.7, 101.29 0.6 M54.05 54.94 C71.78 34.94, 87.43 15.54, 101.29 0.6 M64.68 54.9 C76.44 44.77, 83.52 32.46, 111.27 1.32 M64.68 54.9 C78.65 39.04, 92.32 24.07, 111.27 1.32 M75.31 54.87 C86.03 41.81, 100.4 28.15, 118.61 5.06 M75.31 54.87 C88.21 38.66, 102.21 24.24, 118.61 5.06 M85.95 54.84 C95.87 41.19, 108.03 26.76, 120.72 14.84 M85.95 54.84 C95 44.3, 104.41 33.31, 120.72 14.84 M95.92 55.56 C102.53 50.8, 104.74 45.55, 120.85 26.88 M95.92 55.56 C101.16 50.25, 106.57 42.94, 120.85 26.88 M107.21 54.77 C109.6 48.63, 113.95 44.83, 120.33 39.67 M107.21 54.77 C111.07 48.72, 117.23 44.98, 120.33 39.67" stroke="#a5d8ff" stroke-width="1" fill="none"></path><path d="M13.72 0 C35.2 2.39, 57.22 -0.76, 106.85 0 M13.72 0 C47.08 -0.72, 80.92 0.77, 106.85 0 M106.85 0 C117.73 1.82, 121.77 5.78, 120.57 13.72 M106.85 0 C114.35 0.87, 120.61 5.97, 120.57 13.72 M120.57 13.72 C119.63 26.51, 120.95 36.37, 120.57 41.16 M120.57 13.72 C119.93 23.18, 120.68 33.82, 120.57 41.16 M120.57 41.16 C122.07 50.39, 117.18 56.1, 106.85 54.88 M120.57 41.16 C118.74 52.16, 118.21 54.76, 106.85 54.88 M106.85 54.88 C74.74 54.74, 43.3 52.54, 13.72 54.88 M106.85 54.88 C84.64 53.17, 63.84 54.92, 13.72 54.88 M13.72 54.88 C3.42 55.95, -1.96 51.13, 0 41.16 M13.72 54.88 C3.92 55.71, 1.95 50.23, 0 41.16 M0 41.16 C-1.14 29.46, 1.88 19.29, 0 13.72 M0 41.16 C0.53 30.96, -0.22 18.9, 0 13.72 M0 13.72 C-1.1 2.7, 6.31 1.46, 13.72 0 M0 13.72 C1.79 5.17, 2.69 1.81, 13.72 0" stroke="transparent" stroke-width="2" fill="none"></path></g><g transform="translate(1630.2936305022422 170.49607938851793) rotate(0 32.76041793823242 12.500000000000014)"><text x="32.76041793823242" y="17.619999999999997" font-family="Excalifont, Xiaolai, sans-serif, Segoe UI Emoji" font-size="20px" fill="#1e1e1e" text-anchor="middle" style="white-space: pre;" direction="ltr" dominant-baseline="alphabetic">C code</text></g><g stroke-linecap="round" transform="translate(1604.4322314724236 222.90885493308707) rotate(0 60.284887280112684 30)"><path d="M3.99 3.47 C3.99 3.47, 3.99 3.47, 3.99 3.47 M3.99 3.47 C3.99 3.47, 3.99 3.47, 3.99 3.47 M4.13 15.51 C8.59 9.01, 11.71 5.98, 16.59 1.17 M4.13 15.51 C7.85 10.2, 12.01 6.04, 16.59 1.17 M4.26 27.55 C13.74 17.6, 22 9.08, 27.22 1.14 M4.26 27.55 C9.97 20.23, 17.17 11.74, 27.22 1.14 M4.39 39.59 C15.4 24.18, 30.79 10.19, 37.85 1.1 M4.39 39.59 C17.77 24.62, 29.44 9.69, 37.85 1.1 M2.56 53.9 C16.93 36.87, 30.65 22.51, 48.48 1.07 M2.56 53.9 C13.94 40.59, 25.07 26.69, 48.48 1.07 M7.94 59.9 C20.89 47.2, 33.92 32.45, 59.11 1.03 M7.94 59.9 C18.51 47.61, 30.4 34.94, 59.11 1.03 M17.26 61.38 C32.22 44.02, 44.48 30.83, 69.74 1 M17.26 61.38 C37.59 38.1, 56.45 16.1, 69.74 1 M27.89 61.34 C41.81 44.84, 57.76 27.53, 80.37 0.97 M27.89 61.34 C38.97 50.07, 50.12 37.65, 80.37 0.97 M37.86 62.06 C52.39 45.84, 64.74 33.14, 91 0.93 M37.86 62.06 C56.02 41.34, 76.5 19.72, 91 0.93 M48.49 62.03 C66.2 39.93, 85.48 21.17, 100.98 1.65 M48.49 62.03 C66.5 40.66, 84.53 22.43, 100.98 1.65 M59.12 61.99 C67.97 48.3, 80.63 38.11, 109.64 3.88 M59.12 61.99 C73.78 45.21, 88.21 28.35, 109.64 3.88 M69.75 61.96 C86.34 45.64, 101.29 28.83, 118.3 6.11 M69.75 61.96 C83.85 45.5, 98.8 28.66, 118.3 6.11 M80.38 61.92 C90.85 52.79, 95.69 41.02, 122.37 13.62 M80.38 61.92 C94.23 45.3, 109.02 29.7, 122.37 13.62 M91.01 61.89 C97.3 53.9, 107.56 44.62, 122.5 25.66 M91.01 61.89 C102.04 49.37, 112.84 36.18, 122.5 25.66 M101.64 61.86 C104.46 55.98, 109.95 51.64, 122.64 37.7 M101.64 61.86 C107.33 55.79, 114.07 47.71, 122.64 37.7" stroke="#ffec99" stroke-width="1" fill="none"></path><path d="M15 0 C44.6 -0.28, 70.57 0.63, 105.57 0 M15 0 C52.02 -1.11, 87.62 -0.88, 105.57 0 M105.57 0 C114.75 -0.83, 121.42 5.01, 120.57 15 M105.57 0 C113.28 -0.78, 118.8 4.91, 120.57 15 M120.57 15 C119.72 22.97, 118.34 31.32, 120.57 45 M120.57 15 C119.98 24.73, 120.6 34.78, 120.57 45 M120.57 45 C120.34 54.01, 114.61 59.77, 105.57 60 M120.57 45 C119.19 54.18, 117.07 60.43, 105.57 60 M105.57 60 C76.2 61.77, 44.44 60.01, 15 60 M105.57 60 C70.05 61.06, 36.29 59.28, 15 60 M15 60 C5.24 61.21, 0.68 55.65, 0 45 M15 60 C3.01 60.35, 1.23 56.87, 0 45 M0 45 C1.1 35.63, -1.12 28.8, 0 15 M0 45 C0.37 35.45, 0.72 25.31, 0 15 M0 15 C1.31 6.58, 5.22 -0.31, 15 0 M0 15 C1.96 6.75, 3.86 2.04, 15 0" stroke="transparent" stroke-width="2" fill="none"></path></g><g transform="translate(1611.842118752536 227.90885493308707) rotate(0 52.875 25)"><text x="52.875" y="17.619999999999997" font-family="Excalifont, Xiaolai, sans-serif, Segoe UI Emoji" font-size="20px" fill="#1e1e1e" text-anchor="middle" style="white-space: pre;" direction="ltr" dominant-baseline="alphabetic">Documenta</text><text x="52.875" y="42.62" font-family="Excalifont, Xiaolai, sans-serif, Segoe UI Emoji" font-size="20px" fill="#1e1e1e" text-anchor="middle" style="white-space: pre;" direction="ltr" dominant-baseline="alphabetic">tion</text></g><g stroke-linecap="round" transform="translate(232.8190886308176 518.1940863667025) rotate(0 158.0155277786541 33.163756549851996)"><path d="M4.41 3.84 C4.41 3.84, 4.41 3.84, 4.41 3.84 M4.41 3.84 C4.41 3.84, 4.41 3.84, 4.41 3.84 M0.61 20.41 C8.32 14.24, 13.27 4.2, 18.32 0.03 M0.61 20.41 C5.5 14.48, 10.88 8.36, 18.32 0.03 M1.4 31.69 C8.66 22.23, 15.12 14.86, 28.95 -0.01 M1.4 31.69 C11.56 20.36, 22.5 7.78, 28.95 -0.01 M1.53 43.73 C15.38 29.19, 25.77 17.88, 39.58 -0.04 M1.53 43.73 C13.96 31.92, 25.02 17.94, 39.58 -0.04 M1.67 55.77 C17.5 36.02, 38.25 15.19, 50.21 -0.07 M1.67 55.77 C13.4 42.29, 25.78 27.13, 50.21 -0.07 M5.74 63.29 C22.03 46.27, 35.93 29.27, 60.84 -0.11 M5.74 63.29 C22.69 42.01, 40.28 21.89, 60.84 -0.11 M13.09 67.03 C35.54 42.46, 57.18 16.36, 70.82 0.61 M13.09 67.03 C31.77 46.73, 48.23 26.09, 70.82 0.61 M23.72 66.99 C41.37 45.32, 60.97 22.91, 81.45 0.58 M23.72 66.99 C44.76 44, 64.07 19.11, 81.45 0.58 M34.35 66.96 C47.24 50.7, 64.72 33.65, 92.08 0.54 M34.35 66.96 C57.03 40.15, 79.86 13.42, 92.08 0.54 M44.98 66.92 C68.12 40.35, 88.24 13.92, 102.71 0.51 M44.98 66.92 C66.91 41.79, 90.49 16.92, 102.71 0.51 M55.61 66.89 C68.46 52.76, 78.46 36.29, 113.34 0.47 M55.61 66.89 C72.63 46.9, 91.24 25.01, 113.34 0.47 M66.24 66.85 C89.19 39.97, 112.32 13.3, 123.97 0.44 M66.24 66.85 C80.98 50.91, 94.2 32.57, 123.97 0.44 M76.87 66.82 C88.66 51.58, 99.58 37.5, 134.6 0.4 M76.87 66.82 C98.05 40.21, 120.9 15.4, 134.6 0.4 M87.5 66.78 C103.81 49.9, 118.01 31.4, 145.23 0.37 M87.5 66.78 C101.04 50.74, 115.68 35.87, 145.23 0.37 M98.13 66.75 C116.85 49, 133.11 28.08, 155.86 0.34 M98.13 66.75 C114.05 47.21, 131.63 27.8, 155.86 0.34 M108.76 66.72 C128.07 45.37, 144.55 26.86, 166.49 0.3 M108.76 66.72 C123.48 50.13, 137.95 32.98, 166.49 0.3 M119.39 66.68 C133.11 53.4, 144.39 38.74, 177.12 0.27 M119.39 66.68 C133.34 50.52, 146.31 34.03, 177.12 0.27 M130.02 66.65 C146.48 48.41, 163.56 26.34, 187.75 0.23 M130.02 66.65 C144.03 49.99, 158.76 32.39, 187.75 0.23 M140.65 66.61 C157.49 50.05, 170.13 33.17, 198.38 0.2 M140.65 66.61 C162.53 40.48, 185.33 14.58, 198.38 0.2 M151.28 66.58 C172.41 42.57, 193.11 16.85, 209.01 0.16 M151.28 66.58 C166.5 49.25, 181.24 32.98, 209.01 0.16 M161.91 66.54 C176.24 50.37, 186.91 35.86, 219.64 0.13 M161.91 66.54 C175.54 50.96, 189.31 34.2, 219.64 0.13 M172.54 66.51 C191.21 47.74, 206.71 25.67, 230.27 0.09 M172.54 66.51 C190.04 47.47, 207.24 26.47, 230.27 0.09 M183.17 66.47 C206.22 42.09, 229.36 15.74, 240.9 0.06 M183.17 66.47 C196.64 53.12, 208.53 37.54, 240.9 0.06 M193.14 67.19 C208.43 48.4, 223.71 31.49, 250.87 0.78 M193.14 67.19 C207.68 50.88, 222.27 34.92, 250.87 0.78 M203.77 67.16 C223.66 43.4, 245.55 20.09, 261.5 0.74 M203.77 67.16 C221.6 47.1, 239.26 27.69, 261.5 0.74 M214.4 67.12 C227.1 49.82, 239.94 36.44, 272.13 0.71 M214.4 67.12 C227.97 50.77, 242.27 36.41, 272.13 0.71 M225.03 67.09 C240.03 52.81, 250.25 36.69, 282.76 0.68 M225.03 67.09 C237.88 52.34, 249.46 37.28, 282.76 0.68 M235.66 67.06 C260.27 42.36, 279.32 15.83, 293.39 0.64 M235.66 67.06 C250.01 52.02, 261.51 36.23, 293.39 0.64 M246.29 67.02 C261.69 51.69, 277.4 34.86, 304.02 0.61 M246.29 67.02 C258.9 52.95, 271.3 38.7, 304.02 0.61 M256.92 66.99 C278.25 44.84, 293.78 24.03, 311.37 4.35 M256.92 66.99 C268.92 54.77, 280.92 40.02, 311.37 4.35 M267.55 66.95 C282.34 49.04, 298.51 28.39, 316.1 11.1 M267.55 66.95 C282.29 48.79, 296.36 33.51, 316.1 11.1 M278.18 66.92 C291.21 51.08, 302.52 37.96, 316.23 23.14 M278.18 66.92 C287.02 56.26, 297.73 45.44, 316.23 23.14 M288.81 66.88 C297.04 56.38, 305.79 46.57, 316.37 35.19 M288.81 66.88 C294.23 60.84, 299.66 53.07, 316.37 35.19 M299.44 66.85 C303.03 61.42, 310.86 53.43, 316.5 47.23 M299.44 66.85 C303.79 62.08, 306.75 58.43, 316.5 47.23" stroke="#ffec99" stroke-width="1" fill="none"></path><path d="M16.58 0 C107.02 -2.78, 198.21 -0.69, 299.45 0 M16.58 0 C120.72 2.34, 223.9 2.4, 299.45 0 M299.45 0 C311.87 -0.33, 316.33 4.73, 316.03 16.58 M299.45 0 C310.68 -2.05, 314.05 5.17, 316.03 16.58 M316.03 16.58 C316.86 28.09, 316.69 41.08, 316.03 49.75 M316.03 16.58 C315.92 23, 315.14 31.07, 316.03 49.75 M316.03 49.75 C317 61.88, 309.16 67.43, 299.45 66.33 M316.03 49.75 C314.06 62.46, 309.93 65.43, 299.45 66.33 M299.45 66.33 C191.92 68.31, 86.33 67.28, 16.58 66.33 M299.45 66.33 C227.7 66.44, 156.33 66.48, 16.58 66.33 M16.58 66.33 C6.37 66.77, -1.96 59.54, 0 49.75 M16.58 66.33 C6.06 64.88, 1.65 58.88, 0 49.75 M0 49.75 C1.75 40.2, 1.86 31.93, 0 16.58 M0 49.75 C0.63 36.94, 0.67 24.22, 0 16.58 M0 16.58 C-1.07 5.95, 4.51 1.13, 16.58 0 M0 16.58 C-1.23 3.62, 6.86 1.54, 16.58 0" stroke="#1e1e1e" stroke-width="2" fill="none"></path></g><g transform="translate(279.3137805330068 539.8578429165545) rotate(0 111.52083587646483 11.5)"><text x="111.52083587646484" y="18.53" font-family="Lilita One, sans-serif, Segoe UI Emoji" font-size="20px" fill="#1e1e1e" text-anchor="middle" style="white-space: pre;" direction="ltr" dominant-baseline="alphabetic">Doc/library/&lt;module&gt;.rst</text></g><g stroke-linecap="round" transform="translate(562.5152603989953 289.52704913959167) rotate(0 158.01552777865413 33.16375654985197)"><path d="M4.41 3.84 C4.41 3.84, 4.41 3.84, 4.41 3.84 M4.41 3.84 C4.41 3.84, 4.41 3.84, 4.41 3.84 M1.92 18.9 C5.49 14.89, 9.92 11.2, 17.67 0.78 M1.92 18.9 C6.01 14.18, 9.94 9.85, 17.67 0.78 M2.71 30.18 C10.12 22.09, 19.85 10.07, 28.3 0.75 M2.71 30.18 C11.36 18.5, 21.51 7.33, 28.3 0.75 M2.85 42.22 C9.53 32.24, 19.54 21.87, 38.93 0.71 M2.85 42.22 C11.53 31.66, 21.32 20.52, 38.93 0.71 M2.98 54.26 C18.94 38.54, 32.21 19, 49.56 0.68 M2.98 54.26 C17.24 38.49, 30.72 23.03, 49.56 0.68 M5.74 63.29 C19.77 48.83, 34.22 31.29, 60.19 0.65 M5.74 63.29 C21.93 45.73, 37.84 27.96, 60.19 0.65 M13.09 67.03 C25.27 52.09, 40.8 37.19, 70.82 0.61 M13.09 67.03 C33.24 45.21, 54.12 21.84, 70.82 0.61 M23.72 66.99 C40.96 48.96, 54.51 30.94, 81.45 0.58 M23.72 66.99 C40.5 49.18, 55.98 31.46, 81.45 0.58 M34.35 66.96 C54.63 42.16, 75.8 19.33, 91.42 1.3 M34.35 66.96 C50.61 47.75, 68.05 28.29, 91.42 1.3 M44.98 66.92 C67.95 42.58, 85.31 18.37, 102.05 1.26 M44.98 66.92 C63.18 47.07, 79.41 28, 102.05 1.26 M55.61 66.89 C75.82 43.87, 99.44 16.09, 112.68 1.23 M55.61 66.89 C73.58 46.52, 91.5 24.84, 112.68 1.23 M66.24 66.85 C79.41 54.85, 91.69 37.33, 123.31 1.19 M66.24 66.85 C88.18 44.32, 108.48 19.03, 123.31 1.19 M76.87 66.82 C91.72 52.4, 105.48 38.36, 133.94 1.16 M76.87 66.82 C97.47 43.2, 118.73 19.28, 133.94 1.16 M87.5 66.78 C105.97 45.54, 127.25 18.52, 144.57 1.12 M87.5 66.78 C107.5 43.6, 129.63 20.38, 144.57 1.12 M98.13 66.75 C114.88 46.97, 130.95 28.55, 155.2 1.09 M98.13 66.75 C111.08 52.62, 121.82 37.81, 155.2 1.09 M108.76 66.72 C129.85 43.49, 148.63 18.51, 165.83 1.06 M108.76 66.72 C124.69 46.65, 142.32 28.56, 165.83 1.06 M119.39 66.68 C140.42 40.66, 163.23 15.08, 176.46 1.02 M119.39 66.68 C136.07 48.8, 151.52 30.79, 176.46 1.02 M130.02 66.65 C145.88 47.47, 160.23 32.88, 187.09 0.99 M130.02 66.65 C145.98 48.77, 161.94 29.5, 187.09 0.99 M140.65 66.61 C162.2 41.06, 183.1 18.78, 197.72 0.95 M140.65 66.61 C159.27 46.28, 177 24.89, 197.72 0.95 M151.28 66.58 C168.74 49.04, 182.01 28.18, 208.35 0.92 M151.28 66.58 C172.28 43.14, 192.35 19.9, 208.35 0.92 M161.91 66.54 C183.66 42.81, 202.28 19.17, 218.98 0.88 M161.91 66.54 C183.54 42.47, 204.45 18.9, 218.98 0.88 M172.54 66.51 C192.04 42.78, 214.38 19.6, 229.61 0.85 M172.54 66.51 C186.35 50.46, 199.69 34.1, 229.61 0.85 M183.17 66.47 C199.55 46.46, 215.06 28.69, 240.24 0.81 M183.17 66.47 C197.02 50.76, 209.4 35.12, 240.24 0.81 M193.14 67.19 C204.58 54.93, 217.96 38.3, 250.87 0.78 M193.14 67.19 C205.97 54.22, 217.34 40.62, 250.87 0.78 M203.77 67.16 C221.76 45.26, 242.49 23.9, 261.5 0.74 M203.77 67.16 C224.31 43.65, 243.94 21.67, 261.5 0.74 M214.4 67.12 C225.96 52.02, 238.18 40.25, 271.48 1.47 M214.4 67.12 C236.34 41.53, 259.37 15.18, 271.48 1.47 M225.03 67.09 C244.48 45.69, 262.86 23.74, 282.11 1.43 M225.03 67.09 C242.79 44.63, 261.82 23.62, 282.11 1.43 M235.66 67.06 C256.2 41.53, 279.23 15.08, 292.74 1.4 M235.66 67.06 C249.83 50.07, 265.42 31.47, 292.74 1.4 M246.29 67.02 C264.43 46.34, 283.92 21.11, 304.02 0.61 M246.29 67.02 C260.85 50.61, 275.73 33.83, 304.02 0.61 M256.92 66.99 C276.11 42.97, 298 19.81, 311.37 4.35 M256.92 66.99 C279.08 41.97, 300.14 17.61, 311.37 4.35 M267.55 66.95 C281.23 51.7, 291.96 42.03, 316.76 10.35 M267.55 66.95 C284.06 47.36, 300.29 30.1, 316.76 10.35 M278.18 66.92 C291.91 53.5, 302.22 40.13, 316.89 22.39 M278.18 66.92 C288.64 54.85, 300.16 42.61, 316.89 22.39 M288.81 66.88 C297.2 58.68, 299.84 53.73, 317.02 34.43 M288.81 66.88 C295.24 58.17, 302.84 50.7, 317.02 34.43 M299.44 66.85 C307.16 58.24, 309.77 51.9, 317.16 46.47 M299.44 66.85 C303.84 61.9, 310.3 55.42, 317.16 46.47" stroke="#a5d8ff" stroke-width="1" fill="none"></path><path d="M16.58 0 C101.88 2.15, 188.43 -0.5, 299.45 0 M16.58 0 C122.13 -1.56, 226.74 -0.89, 299.45 0 M299.45 0 C312.4 -1.76, 315.1 6.22, 316.03 16.58 M299.45 0 C310.54 -1.6, 318.13 5.55, 316.03 16.58 M316.03 16.58 C317 24.51, 315.16 37.28, 316.03 49.75 M316.03 16.58 C315.47 23.63, 315.31 32.43, 316.03 49.75 M316.03 49.75 C316.97 60.54, 309.28 65.04, 299.45 66.33 M316.03 49.75 C314.22 62.79, 311.88 67.62, 299.45 66.33 M299.45 66.33 C235.87 65.16, 170.31 66.2, 16.58 66.33 M299.45 66.33 C196.01 66.85, 93.76 67.18, 16.58 66.33 M16.58 66.33 C5.11 65.18, 1.75 61.08, 0 49.75 M16.58 66.33 C5.17 64.72, 1.82 62.9, 0 49.75 M0 49.75 C-0.46 37.78, -1.78 23.24, 0 16.58 M0 49.75 C-0.02 41.82, 0.12 35.14, 0 16.58 M0 16.58 C-1.07 6.1, 6.13 -1.01, 16.58 0 M0 16.58 C0.89 6.14, 6.85 0.33, 16.58 0" stroke="#1e1e1e" stroke-width="2" fill="none"></path></g><g transform="translate(598.2287023011846 311.1908056894436) rotate(0 122.30208587646484 11.5)"><text x="122.30208587646484" y="18.53" font-family="Lilita One, sans-serif, Segoe UI Emoji" font-size="20px" fill="#1e1e1e" text-anchor="middle" style="white-space: pre;" direction="ltr" dominant-baseline="alphabetic">Modules/&lt;module&gt;module.c</text></g><g stroke-linecap="round" transform="translate(563.3467955550259 364.3635003119255) rotate(0 158.01552777865408 33.16375654985197)"><path d="M4.41 3.84 C4.41 3.84, 4.41 3.84, 4.41 3.84 M4.41 3.84 C4.41 3.84, 4.41 3.84, 4.41 3.84 M0.61 20.41 C4.39 13.47, 12.31 8.99, 18.32 0.03 M0.61 20.41 C5.19 14.92, 8.93 9.63, 18.32 0.03 M1.4 31.69 C12.65 22.65, 22.44 7.75, 28.95 -0.01 M1.4 31.69 C9.07 23.02, 17.73 12.29, 28.95 -0.01 M1.53 43.73 C11.34 30.94, 23.24 17.58, 39.58 -0.04 M1.53 43.73 C15.25 27.7, 29.12 13.58, 39.58 -0.04 M1.67 55.77 C20.45 33.12, 37.48 13.66, 50.21 -0.07 M1.67 55.77 C11.94 43.43, 22.75 30.97, 50.21 -0.07 M5.74 63.29 C23.17 42.63, 40.17 22.85, 60.84 -0.11 M5.74 63.29 C21.3 44.79, 39.38 24.29, 60.84 -0.11 M13.09 67.03 C33.69 41.67, 52.2 19.75, 70.82 0.61 M13.09 67.03 C33.53 42.07, 54.88 18.53, 70.82 0.61 M23.72 66.99 C40.83 45.95, 57.96 28.42, 81.45 0.58 M23.72 66.99 C42.24 46.43, 59.97 24.89, 81.45 0.58 M34.35 66.96 C50.68 48.02, 68.91 27.85, 92.08 0.54 M34.35 66.96 C57.39 40.08, 78.93 16.05, 92.08 0.54 M44.98 66.92 C61.46 47.58, 76.33 31.67, 102.71 0.51 M44.98 66.92 C61.67 47.99, 76.36 29.89, 102.71 0.51 M55.61 66.89 C76.76 41.51, 98.75 17.88, 113.34 0.47 M55.61 66.89 C75.35 44.73, 96.1 21.22, 113.34 0.47 M66.24 66.85 C89.1 40.35, 108.27 17.77, 123.97 0.44 M66.24 66.85 C87.53 41.23, 109.56 16.86, 123.97 0.44 M76.87 66.82 C96.45 42.94, 115.94 21.87, 134.6 0.4 M76.87 66.82 C97.72 43.67, 117.52 18.89, 134.6 0.4 M87.5 66.78 C111.61 39.34, 134.96 12.95, 145.23 0.37 M87.5 66.78 C107.72 42.43, 128.4 18.33, 145.23 0.37 M98.13 66.75 C109.4 52.02, 123.49 38.09, 155.86 0.34 M98.13 66.75 C115.91 48.46, 131.43 29.47, 155.86 0.34 M108.76 66.72 C127.55 44.75, 148.17 22.64, 166.49 0.3 M108.76 66.72 C123.13 50.93, 135.59 34.4, 166.49 0.3 M119.39 66.68 C134.84 46.77, 150.12 31.79, 177.12 0.27 M119.39 66.68 C132.93 50.77, 148.74 34.56, 177.12 0.27 M130.02 66.65 C141.28 51.29, 153.81 38.06, 187.75 0.23 M130.02 66.65 C150.34 45.14, 168.37 22.65, 187.75 0.23 M140.65 66.61 C152.92 50.91, 164.96 38.44, 198.38 0.2 M140.65 66.61 C161.75 43.4, 181.87 19.28, 198.38 0.2 M151.28 66.58 C173.17 42.81, 193.71 21.57, 209.01 0.16 M151.28 66.58 C169.16 46.35, 186.35 26.43, 209.01 0.16 M161.91 66.54 C182.48 45.69, 201 25.11, 219.64 0.13 M161.91 66.54 C181.63 43.7, 199.98 20.26, 219.64 0.13 M172.54 66.51 C187.21 48.46, 203.46 29.28, 230.27 0.09 M172.54 66.51 C189.97 47.38, 208.1 27.79, 230.27 0.09 M183.17 66.47 C195.74 51.87, 212.6 36.21, 240.9 0.06 M183.17 66.47 C200.9 44.48, 219.93 23.37, 240.9 0.06 M193.14 67.19 C212.06 41.77, 233.85 19.86, 250.87 0.78 M193.14 67.19 C215.06 42.54, 235.9 17.29, 250.87 0.78 M203.77 67.16 C223.82 46.05, 241.72 24.76, 261.5 0.74 M203.77 67.16 C216.41 51.09, 231.08 34.7, 261.5 0.74 M214.4 67.12 C228.62 54.13, 238.1 38.26, 272.13 0.71 M214.4 67.12 C231.03 47.71, 248.53 29.35, 272.13 0.71 M225.03 67.09 C242.52 49.55, 258.99 26.34, 282.76 0.68 M225.03 67.09 C241.16 49.64, 256.06 32.21, 282.76 0.68 M235.66 67.06 C251.84 47.98, 269.98 26.66, 293.39 0.64 M235.66 67.06 C256.4 43.6, 277.11 20.39, 293.39 0.64 M246.29 67.02 C268.35 40.02, 292.92 14.9, 304.02 0.61 M246.29 67.02 C265.33 46.65, 282.65 23.87, 304.02 0.61 M256.92 66.99 C274.62 49.09, 290.43 32.07, 311.37 4.35 M256.92 66.99 C274.08 45.37, 292.75 26.13, 311.37 4.35 M267.55 66.95 C278.02 53.29, 286.28 42.59, 316.1 11.1 M267.55 66.95 C278.23 55.09, 287.84 44.03, 316.1 11.1 M278.18 66.92 C290.55 49.94, 305.71 36.24, 316.23 23.14 M278.18 66.92 C289.85 51.48, 304.05 38.6, 316.23 23.14 M288.81 66.88 C295.69 60.05, 305.1 48.46, 316.37 35.19 M288.81 66.88 C297.37 57.87, 305.79 48.91, 316.37 35.19 M299.44 66.85 C302.83 64, 305.09 57.7, 316.5 47.23 M299.44 66.85 C304.86 60.45, 311.59 53.32, 316.5 47.23" stroke="#ffc9c9" stroke-width="1" fill="none"></path><path d="M16.58 0 C127.7 2.16, 237.31 2.04, 299.45 0 M16.58 0 C80.99 -0.97, 143.61 -0.03, 299.45 0 M299.45 0 C310.53 -1.39, 317.86 5.55, 316.03 16.58 M299.45 0 C310.24 0.42, 314.93 6.57, 316.03 16.58 M316.03 16.58 C314.71 25.1, 316.98 29.52, 316.03 49.75 M316.03 16.58 C316.19 23.21, 315.11 29.46, 316.03 49.75 M316.03 49.75 C314.45 62.53, 311.7 67.45, 299.45 66.33 M316.03 49.75 C314.33 59.39, 310.05 66.89, 299.45 66.33 M299.45 66.33 C229.28 66.69, 157.91 65.32, 16.58 66.33 M299.45 66.33 C232.9 65.44, 167.33 65.99, 16.58 66.33 M16.58 66.33 C5.22 64.93, 1.58 62.63, 0 49.75 M16.58 66.33 C7.38 68.22, -0.46 60.58, 0 49.75 M0 49.75 C-1.1 39.05, -1.31 27.77, 0 16.58 M0 49.75 C-0.59 40.82, 0.24 30.82, 0 16.58 M0 16.58 C0.78 6.06, 6.68 0.29, 16.58 0 M0 16.58 C1.48 4.51, 3.53 -2.21, 16.58 0" stroke="#1e1e1e" stroke-width="2" fill="none"></path></g><g transform="translate(603.5914874572152 386.0272568617775) rotate(0 117.77083587646484 11.5)"><text x="117.77083587646484" y="18.53" font-family="Lilita One, sans-serif, Segoe UI Emoji" font-size="20px" fill="#1e1e1e" text-anchor="middle" style="white-space: pre;" direction="ltr" dominant-baseline="alphabetic">Lib/test/test_&lt;module&gt;.py</text></g><g stroke-linecap="round" transform="translate(562.5154665778433 443.35767484414737) rotate(0 158.01552777865413 33.163756549851996)"><path d="M4.41 3.84 C4.41 3.84, 4.41 3.84, 4.41 3.84 M4.41 3.84 C4.41 3.84, 4.41 3.84, 4.41 3.84 M0.61 20.41 C4.2 16.39, 8.48 10.15, 18.32 0.03 M0.61 20.41 C5.97 15.5, 9.32 10.48, 18.32 0.03 M1.4 31.69 C11.76 18.1, 22.99 5.81, 28.95 -0.01 M1.4 31.69 C11.48 20.24, 21.34 7.94, 28.95 -0.01 M1.53 43.73 C12.2 31.35, 21.65 21.84, 39.58 -0.04 M1.53 43.73 C10.7 33.2, 18.13 23.54, 39.58 -0.04 M1.67 55.77 C12.3 43.19, 23.93 27.97, 50.21 -0.07 M1.67 55.77 C17.16 39.44, 30.9 21.52, 50.21 -0.07 M5.74 63.29 C22.48 45.94, 39.13 24.38, 60.84 -0.11 M5.74 63.29 C27.29 39.42, 49.09 14.47, 60.84 -0.11 M13.09 67.03 C27.25 54.6, 38.52 37.83, 70.82 0.61 M13.09 67.03 C28.37 48.75, 43.58 31.59, 70.82 0.61 M23.72 66.99 C38.38 51.03, 53.41 35.41, 81.45 0.58 M23.72 66.99 C43.79 43.39, 64.98 19.95, 81.45 0.58 M34.35 66.96 C53.03 46.7, 70.74 28.13, 92.08 0.54 M34.35 66.96 C47.3 50.5, 60.29 36.25, 92.08 0.54 M44.98 66.92 C58.25 50.08, 73.33 36.93, 102.71 0.51 M44.98 66.92 C59.31 52.22, 71.18 36.38, 102.71 0.51 M55.61 66.89 C68.98 51.73, 79.46 36.2, 113.34 0.47 M55.61 66.89 C79.38 41.3, 100.2 15.03, 113.34 0.47 M66.24 66.85 C81.42 52.08, 91.49 35.37, 123.97 0.44 M66.24 66.85 C81.37 50.77, 96.4 34.09, 123.97 0.44 M76.87 66.82 C90.02 52.97, 102.15 39.04, 134.6 0.4 M76.87 66.82 C98.4 43.5, 116.99 20.65, 134.6 0.4 M87.5 66.78 C100.82 54.73, 113.69 38.04, 145.23 0.37 M87.5 66.78 C106.08 45.06, 125.16 22.08, 145.23 0.37 M98.13 66.75 C115.54 44.36, 131.78 27.5, 155.86 0.34 M98.13 66.75 C117.45 44.17, 135.76 23.05, 155.86 0.34 M108.76 66.72 C121.87 50.74, 138.52 34.57, 166.49 0.3 M108.76 66.72 C126.83 45.88, 144.99 25.12, 166.49 0.3 M119.39 66.68 C130.78 53.94, 142.19 37.79, 177.12 0.27 M119.39 66.68 C136.78 45.08, 156.81 22.55, 177.12 0.27 M130.02 66.65 C144.23 50.86, 155.65 37.22, 187.75 0.23 M130.02 66.65 C149.98 43.35, 171.28 19.76, 187.75 0.23 M140.65 66.61 C154.28 51.29, 165.74 37.74, 198.38 0.2 M140.65 66.61 C163.94 39.71, 185.26 15.56, 198.38 0.2 M151.28 66.58 C166.26 49.86, 181.33 32.3, 209.01 0.16 M151.28 66.58 C168.92 45.42, 186.68 26.67, 209.01 0.16 M161.91 66.54 C182.41 44.62, 203.66 21.03, 219.64 0.13 M161.91 66.54 C181.65 44.81, 201.41 21.42, 219.64 0.13 M172.54 66.51 C191.23 43.42, 209.52 23.57, 230.27 0.09 M172.54 66.51 C190.7 44.18, 210.33 21.16, 230.27 0.09 M183.17 66.47 C204.03 41.41, 224.65 15.87, 240.9 0.06 M183.17 66.47 C197.5 51.53, 209.49 34.94, 240.9 0.06 M193.14 67.19 C206.7 52.23, 219.23 40.44, 250.87 0.78 M193.14 67.19 C212.08 46.01, 231.31 25.07, 250.87 0.78 M203.77 67.16 C223.78 43.55, 246.92 16.2, 261.5 0.74 M203.77 67.16 C221.97 45.65, 241.74 24.69, 261.5 0.74 M214.4 67.12 C235.93 43.65, 256.24 18.41, 272.13 0.71 M214.4 67.12 C228.56 50.48, 242.78 33.21, 272.13 0.71 M225.03 67.09 C247 39.5, 271.88 16.53, 282.76 0.68 M225.03 67.09 C240.9 48.51, 256.66 29.01, 282.76 0.68 M235.66 67.06 C253.68 47, 268.35 28.68, 293.39 0.64 M235.66 67.06 C249.14 51.8, 260.68 36.76, 293.39 0.64 M246.29 67.02 C260.19 52.3, 273.18 37.14, 304.02 0.61 M246.29 67.02 C268.8 41.58, 291.57 16.89, 304.02 0.61 M256.92 66.99 C274.28 47.12, 292.49 25.31, 311.37 4.35 M256.92 66.99 C269.22 51.68, 284.34 36.32, 311.37 4.35 M267.55 66.95 C276.48 53.79, 290.3 43.5, 316.1 11.1 M267.55 66.95 C283.3 48.76, 298.96 31.3, 316.1 11.1 M278.18 66.92 C286.18 59.35, 293.55 47.81, 316.23 23.14 M278.18 66.92 C285.85 56, 295.38 46.98, 316.23 23.14 M288.81 66.88 C299.32 53.78, 312.18 42.78, 316.37 35.19 M288.81 66.88 C297.66 54.57, 307.78 43.61, 316.37 35.19 M299.44 66.85 C307.06 61.8, 311.77 51.56, 316.5 47.23 M299.44 66.85 C305.37 58.85, 312.66 51.85, 316.5 47.23" stroke="#ffec99" stroke-width="1" fill="none"></path><path d="M16.58 0 C106.39 -1.75, 198.69 1.14, 299.45 0 M16.58 0 C76.59 -1.28, 137.27 -0.74, 299.45 0 M299.45 0 C310.27 0.37, 315.07 6.43, 316.03 16.58 M299.45 0 C308.62 -1.07, 317.84 4.18, 316.03 16.58 M316.03 16.58 C314.29 26.78, 315.86 41.65, 316.03 49.75 M316.03 16.58 C315.04 26.97, 316.42 36.18, 316.03 49.75 M316.03 49.75 C314.55 59.57, 310.11 66.82, 299.45 66.33 M316.03 49.75 C314.91 58.95, 310.95 67.78, 299.45 66.33 M299.45 66.33 C214.64 63.84, 131.51 63.99, 16.58 66.33 M299.45 66.33 C230.76 66.1, 162.92 67.33, 16.58 66.33 M16.58 66.33 C7.14 67.98, -0.4 60.61, 0 49.75 M16.58 66.33 C6.28 64.59, -1.46 59.25, 0 49.75 M0 49.75 C-0.19 39.6, 1.88 27.68, 0 16.58 M0 49.75 C0.29 39.12, 0.48 28.1, 0 16.58 M0 16.58 C1.28 4.64, 3.79 -1.92, 16.58 0 M0 16.58 C-1.95 6.42, 5.98 -0.29, 16.58 0" stroke="#1e1e1e" stroke-width="2" fill="none"></path></g><g transform="translate(609.0101584800326 465.02143139399936) rotate(0 111.52083587646484 11.5)"><text x="111.52083587646484" y="18.53" font-family="Lilita One, sans-serif, Segoe UI Emoji" font-size="20px" fill="#1e1e1e" text-anchor="middle" style="white-space: pre;" direction="ltr" dominant-baseline="alphabetic">Doc/library/&lt;module&gt;.rst</text></g><g stroke-linecap="round" transform="translate(898.4478506779354 291.19005601200763) rotate(0 158.01552777865413 33.16375654985197)"><path d="M4.41 3.84 C4.41 3.84, 4.41 3.84, 4.41 3.84 M4.41 3.84 C4.41 3.84, 4.41 3.84, 4.41 3.84 M0.61 20.41 C6.6 13.11, 10.43 8.76, 18.32 0.03 M0.61 20.41 C3.34 16.87, 8.56 13.33, 18.32 0.03 M1.4 31.69 C11.85 23.16, 17.66 10.84, 28.95 -0.01 M1.4 31.69 C11.43 18.87, 23.2 6.61, 28.95 -0.01 M1.53 43.73 C15.43 27.85, 26.82 15.21, 39.58 -0.04 M1.53 43.73 C14.49 28.77, 26.92 13.2, 39.58 -0.04 M1.67 55.77 C17.5 38.71, 32.42 23.98, 50.21 -0.07 M1.67 55.77 C10.03 44.88, 20.77 33.19, 50.21 -0.07 M5.74 63.29 C25.83 42.14, 45.66 18.22, 60.84 -0.11 M5.74 63.29 C21.39 44.95, 37.3 26.87, 60.84 -0.11 M13.09 67.03 C34.81 42.97, 55.76 17.91, 70.82 0.61 M13.09 67.03 C25.66 52.14, 37.63 39.36, 70.82 0.61 M23.72 66.99 C41.85 44.52, 62.95 22.21, 81.45 0.58 M23.72 66.99 C42.72 44.68, 61.92 23.73, 81.45 0.58 M34.35 66.96 C49.18 50.77, 64.77 32.36, 92.08 0.54 M34.35 66.96 C56.01 40.88, 78.33 16.57, 92.08 0.54 M44.98 66.92 C66.64 40.33, 90.17 12.59, 102.71 0.51 M44.98 66.92 C60.36 49.65, 75.58 32.31, 102.71 0.51 M55.61 66.89 C70.31 50.55, 83.19 33.47, 113.34 0.47 M55.61 66.89 C74.75 43.98, 93.5 22.72, 113.34 0.47 M66.24 66.85 C87.83 42.59, 109.96 15.37, 123.97 0.44 M66.24 66.85 C78.12 52.84, 92.03 39.23, 123.97 0.44 M76.87 66.82 C98.13 43.04, 117.25 22.09, 134.6 0.4 M76.87 66.82 C89.65 51.85, 102.24 35.98, 134.6 0.4 M87.5 66.78 C107.39 43.37, 130.17 18.7, 145.23 0.37 M87.5 66.78 C98.89 52.54, 113.18 38.29, 145.23 0.37 M98.13 66.75 C113.11 48.19, 132.74 25.47, 155.86 0.34 M98.13 66.75 C114.46 47.49, 131.17 29.4, 155.86 0.34 M108.76 66.72 C121.53 52.76, 133.76 41.36, 166.49 0.3 M108.76 66.72 C120.15 53.23, 131.25 40.55, 166.49 0.3 M119.39 66.68 C129.46 54.5, 142.87 38.83, 177.12 0.27 M119.39 66.68 C137.86 45.27, 156.26 24.41, 177.12 0.27 M130.02 66.65 C143.39 47.61, 160 29.6, 187.75 0.23 M130.02 66.65 C142.16 53.18, 154.56 38.55, 187.75 0.23 M140.65 66.61 C158.32 48.26, 175.9 27.81, 198.38 0.2 M140.65 66.61 C162.09 42.58, 184.15 18.54, 198.38 0.2 M151.28 66.58 C170.58 48.21, 186.38 24.28, 209.01 0.16 M151.28 66.58 C163.74 51.43, 177.79 36.61, 209.01 0.16 M161.91 66.54 C179.77 43.13, 200.48 21.97, 219.64 0.13 M161.91 66.54 C177.17 50.64, 191.28 32.79, 219.64 0.13 M172.54 66.51 C194.07 40.58, 215.61 18, 230.27 0.09 M172.54 66.51 C186.52 48.21, 203.69 30.04, 230.27 0.09 M183.17 66.47 C196.12 48.88, 213.66 31.61, 240.9 0.06 M183.17 66.47 C195.59 51.25, 209.12 36.57, 240.9 0.06 M193.14 67.19 C211.75 45.52, 230.15 26.73, 250.87 0.78 M193.14 67.19 C212.66 44.16, 233.37 21.49, 250.87 0.78 M203.77 67.16 C220.18 47.45, 236.59 26.57, 261.5 0.74 M203.77 67.16 C222.95 45.08, 242.31 21.8, 261.5 0.74 M214.4 67.12 C236.4 40.32, 258.75 15.66, 272.13 0.71 M214.4 67.12 C232.91 46.12, 252.26 24.91, 272.13 0.71 M225.03 67.09 C240.96 46.97, 258.14 31.41, 282.76 0.68 M225.03 67.09 C239.06 49.94, 254.14 32.52, 282.76 0.68 M235.66 67.06 C249.11 50.97, 260.65 39.12, 293.39 0.64 M235.66 67.06 C246.16 54.69, 259.22 39.7, 293.39 0.64 M246.29 67.02 C264.65 46.43, 282.03 28.91, 304.02 0.61 M246.29 67.02 C259.79 50.37, 272.11 35.99, 304.02 0.61 M256.92 66.99 C274.1 46.21, 291.31 28.23, 311.37 4.35 M256.92 66.99 C271.34 49.3, 287.17 31.61, 311.37 4.35 M267.55 66.95 C280.03 52.27, 295.15 39.34, 316.1 11.1 M267.55 66.95 C285.27 46.05, 304.51 24.29, 316.1 11.1 M278.18 66.92 C291.99 54.69, 302.81 38.45, 316.23 23.14 M278.18 66.92 C292.38 49.49, 306.96 34.31, 316.23 23.14 M288.81 66.88 C298.99 53.3, 311.35 42.81, 316.37 35.19 M288.81 66.88 C299.32 54.67, 308.61 43.23, 316.37 35.19 M299.44 66.85 C304.34 62.05, 310.22 55.38, 316.5 47.23 M299.44 66.85 C306.26 59.57, 313.46 51.22, 316.5 47.23" stroke="#a5d8ff" stroke-width="1" fill="none"></path><path d="M16.58 0 C125.39 -1.46, 231.54 -1.07, 299.45 0 M16.58 0 C89.69 0.55, 161.49 0.33, 299.45 0 M299.45 0 C311.94 1.64, 315.16 5.74, 316.03 16.58 M299.45 0 C310.17 -2.16, 314.13 3.38, 316.03 16.58 M316.03 16.58 C317.64 29.41, 316.33 39.67, 316.03 49.75 M316.03 16.58 C315.92 27.56, 316.6 36.97, 316.03 49.75 M316.03 49.75 C316.83 62.47, 309.5 68.06, 299.45 66.33 M316.03 49.75 C315.08 58.83, 309.9 65.95, 299.45 66.33 M299.45 66.33 C207.51 67.37, 115.29 67.84, 16.58 66.33 M299.45 66.33 C216.68 65.38, 134 65.88, 16.58 66.33 M16.58 66.33 C6.61 66.74, -1.83 59.89, 0 49.75 M16.58 66.33 C3.75 67.99, 2 61.67, 0 49.75 M0 49.75 C-1.46 42.2, -1.52 36.29, 0 16.58 M0 49.75 C-0.85 41.27, -0.2 33.71, 0 16.58 M0 16.58 C0.65 3.79, 4.73 0.54, 16.58 0 M0 16.58 C1.41 6.46, 4.14 0.78, 16.58 0" stroke="#1e1e1e" stroke-width="2" fill="none"></path></g><g transform="translate(948.9008784565896 312.85381256185957) rotate(0 107.5625 11.5)"><text x="107.5625" y="18.53" font-family="Lilita One, sans-serif, Segoe UI Emoji" font-size="20px" fill="#1e1e1e" text-anchor="middle" style="white-space: pre;" direction="ltr" dominant-baseline="alphabetic">Objects/&lt;builtin&gt;object.c</text></g><g stroke-linecap="round" transform="translate(899.279385833966 366.0265071843415) rotate(0 158.01552777865408 33.16375654985197)"><path d="M4.41 3.84 C4.41 3.84, 4.41 3.84, 4.41 3.84 M4.41 3.84 C4.41 3.84, 4.41 3.84, 4.41 3.84 M0.61 20.41 C2.59 16.16, 6.96 9.75, 18.32 0.03 M0.61 20.41 C6.74 12.76, 11.59 6.98, 18.32 0.03 M1.4 31.69 C13.96 21.28, 22.7 6.81, 28.95 -0.01 M1.4 31.69 C8.2 23.26, 14.03 16.85, 28.95 -0.01 M1.53 43.73 C10.42 36.14, 19.36 25.69, 39.58 -0.04 M1.53 43.73 C15.21 28.42, 29.14 13.5, 39.58 -0.04 M1.67 55.77 C13.57 40.56, 30.43 20.44, 50.21 -0.07 M1.67 55.77 C19.11 35.94, 34.48 16.91, 50.21 -0.07 M5.74 63.29 C25.83 39.43, 46.44 16.03, 60.84 -0.11 M5.74 63.29 C21.98 45.36, 37.18 27.9, 60.84 -0.11 M13.09 67.03 C29.89 45.94, 52.25 25.37, 70.82 0.61 M13.09 67.03 C27.21 49.86, 41.24 33.36, 70.82 0.61 M23.72 66.99 C39.16 48.06, 55.74 31.91, 81.45 0.58 M23.72 66.99 C36.78 50.92, 50.47 34.95, 81.45 0.58 M34.35 66.96 C55.02 46.59, 71.43 22.8, 92.08 0.54 M34.35 66.96 C49.3 49.88, 62.85 33.85, 92.08 0.54 M44.98 66.92 C62.77 45.23, 81.15 25.75, 102.71 0.51 M44.98 66.92 C58.84 50.75, 74.8 33.63, 102.71 0.51 M55.61 66.89 C74.74 45.4, 94.43 24.98, 113.34 0.47 M55.61 66.89 C69.5 52.9, 80.97 36.82, 113.34 0.47 M66.24 66.85 C85.84 41.56, 106.83 16.86, 123.97 0.44 M66.24 66.85 C81.11 48.74, 95.41 32.72, 123.97 0.44 M76.87 66.82 C88.79 51.65, 105.46 35.66, 134.6 0.4 M76.87 66.82 C96.14 46.57, 113.39 24.24, 134.6 0.4 M87.5 66.78 C102.98 47.49, 121.75 24.75, 145.23 0.37 M87.5 66.78 C103.84 47.94, 121.46 26.76, 145.23 0.37 M98.13 66.75 C118.64 43.72, 140.19 19.08, 155.86 0.34 M98.13 66.75 C111.13 49.1, 125.91 33.6, 155.86 0.34 M108.76 66.72 C122.14 48.3, 140.1 29.82, 166.49 0.3 M108.76 66.72 C126.51 46.14, 145.07 24.04, 166.49 0.3 M119.39 66.68 C139.18 44.08, 159.64 21.31, 177.12 0.27 M119.39 66.68 C139.03 43.99, 159.16 20.18, 177.12 0.27 M130.02 66.65 C141.55 52.5, 155.16 36.28, 187.75 0.23 M130.02 66.65 C152.08 41.2, 173.17 16.69, 187.75 0.23 M140.65 66.61 C159.99 44.17, 176.68 23.52, 198.38 0.2 M140.65 66.61 C159.77 43.44, 178.07 22.21, 198.38 0.2 M151.28 66.58 C172.78 39.98, 197.44 13.74, 209.01 0.16 M151.28 66.58 C165.84 50.2, 179.25 32.31, 209.01 0.16 M161.91 66.54 C173.76 51.23, 186.37 37.9, 219.64 0.13 M161.91 66.54 C185.06 41.93, 205.93 15.98, 219.64 0.13 M172.54 66.51 C184.35 53.68, 196.55 35.29, 230.27 0.09 M172.54 66.51 C184.95 52.25, 199.07 35.74, 230.27 0.09 M183.17 66.47 C197.66 48.45, 213.88 27.99, 240.9 0.06 M183.17 66.47 C197.51 49.33, 211.45 34.16, 240.9 0.06 M193.14 67.19 C204.99 53.37, 216.42 39.71, 250.87 0.78 M193.14 67.19 C209.63 48.72, 225.67 28.38, 250.87 0.78 M203.77 67.16 C222.47 48.87, 237.5 27.64, 261.5 0.74 M203.77 67.16 C221.74 47.58, 237.46 27.96, 261.5 0.74 M214.4 67.12 C231.24 47.37, 246.44 29.52, 272.13 0.71 M214.4 67.12 C233.29 44.93, 253.06 22.56, 272.13 0.71 M225.03 67.09 C235.2 52.52, 249.82 38.38, 282.76 0.68 M225.03 67.09 C241.7 47.87, 261.07 28.12, 282.76 0.68 M235.66 67.06 C245.27 53.46, 258.47 37.28, 293.39 0.64 M235.66 67.06 C256.83 42.23, 278.02 18.43, 293.39 0.64 M246.29 67.02 C259.97 50.77, 278.27 32.47, 304.02 0.61 M246.29 67.02 C262.26 48.38, 277.37 31.45, 304.02 0.61 M256.92 66.99 C268.7 53.98, 282.52 37.68, 311.37 4.35 M256.92 66.99 C273.99 46.03, 290.92 26.39, 311.37 4.35 M267.55 66.95 C282.65 50.45, 296.83 33.14, 316.1 11.1 M267.55 66.95 C285.77 45.49, 302.63 25.96, 316.1 11.1 M278.18 66.92 C294.19 49.28, 307.9 33.22, 316.23 23.14 M278.18 66.92 C286.78 57.99, 293.88 48.66, 316.23 23.14 M288.81 66.88 C296.25 59.2, 300.37 52.93, 316.37 35.19 M288.81 66.88 C295.62 59.07, 301.61 51.82, 316.37 35.19 M299.44 66.85 C307.74 59.9, 313.02 52.37, 316.5 47.23 M299.44 66.85 C304.71 59.57, 312.36 53.44, 316.5 47.23" stroke="#ffc9c9" stroke-width="1" fill="none"></path><path d="M16.58 0 C111.15 -1.62, 206.9 -0.67, 299.45 0 M16.58 0 C115.95 0.17, 213.89 -0.37, 299.45 0 M299.45 0 C310.21 -1.88, 314.38 3.66, 316.03 16.58 M299.45 0 C311.33 -2.04, 314.47 7.71, 316.03 16.58 M316.03 16.58 C316.17 29.27, 314.79 41.83, 316.03 49.75 M316.03 16.58 C316.62 30.54, 315.72 43.7, 316.03 49.75 M316.03 49.75 C315.2 59.08, 309.97 66, 299.45 66.33 M316.03 49.75 C316.56 60.27, 311.3 65.41, 299.45 66.33 M299.45 66.33 C208.96 68.08, 118.11 66.56, 16.58 66.33 M299.45 66.33 C217.13 67.76, 133.28 67.25, 16.58 66.33 M16.58 66.33 C3.98 67.77, 1.74 61.55, 0 49.75 M16.58 66.33 C3.32 68.3, -0.66 59.45, 0 49.75 M0 49.75 C-1.02 42.42, 1.2 31.17, 0 16.58 M0 49.75 C0.32 40.77, -0.41 33.8, 0 16.58 M0 16.58 C1.23 6.34, 4.32 0.67, 16.58 0 M0 16.58 C-2.21 4.67, 4.41 -0.44, 16.58 0" stroke="#1e1e1e" stroke-width="2" fill="none"></path></g><g transform="translate(943.190749489085 387.6902637341935) rotate(0 114.1041641235351 11.5)"><text x="114.10416412353516" y="18.53" font-family="Lilita One, sans-serif, Segoe UI Emoji" font-size="20px" fill="#1e1e1e" text-anchor="middle" style="white-space: pre;" direction="ltr" dominant-baseline="alphabetic">Lib/test/test_&lt;builtin&gt;.py</text></g><g stroke-linecap="round" transform="translate(898.4480568567834 445.02068171656333) rotate(0 158.01552777865413 33.163756549851996)"><path d="M4.41 3.84 C4.41 3.84, 4.41 3.84, 4.41 3.84 M4.41 3.84 C4.41 3.84, 4.41 3.84, 4.41 3.84 M1.92 18.9 C7.83 15.09, 13.87 8.18, 17.67 0.78 M1.92 18.9 C6.76 13.36, 9.67 10.78, 17.67 0.78 M2.71 30.18 C11.38 20.49, 21.16 8.37, 28.3 0.75 M2.71 30.18 C7.6 23.62, 14.04 17.63, 28.3 0.75 M2.85 42.22 C17.14 25.32, 29.91 10.8, 38.93 0.71 M2.85 42.22 C14.01 29.72, 26.43 14.72, 38.93 0.71 M2.98 54.26 C21.91 33.95, 39.12 14.22, 49.56 0.68 M2.98 54.26 C16.02 40.46, 27.46 26.77, 49.56 0.68 M5.74 63.29 C20.54 45.74, 35.84 29.8, 60.19 0.65 M5.74 63.29 C21.28 45.43, 36.45 26.53, 60.19 0.65 M13.09 67.03 C29.85 46.69, 50.39 24.81, 70.82 0.61 M13.09 67.03 C27.39 51, 41.79 33.79, 70.82 0.61 M23.72 66.99 C34.81 53.69, 48.25 36.73, 81.45 0.58 M23.72 66.99 C40.72 48.58, 56.35 30.53, 81.45 0.58 M34.35 66.96 C54.53 42.26, 78.45 20.5, 91.42 1.3 M34.35 66.96 C46.81 52.1, 58.97 37.61, 91.42 1.3 M44.98 66.92 C58.59 51.66, 72.25 32.93, 102.05 1.26 M44.98 66.92 C64.5 43.72, 83.87 21.58, 102.05 1.26 M55.61 66.89 C69.57 48.57, 86.41 31.73, 112.68 1.23 M55.61 66.89 C78.68 41.3, 100.03 15.56, 112.68 1.23 M66.24 66.85 C80.18 52.74, 95.38 35.58, 123.31 1.19 M66.24 66.85 C78.71 51.93, 92.48 36.08, 123.31 1.19 M76.87 66.82 C95.76 44.8, 112.47 24.38, 133.94 1.16 M76.87 66.82 C98.28 43.69, 118.79 18.13, 133.94 1.16 M87.5 66.78 C107.06 46.83, 126.77 22.35, 144.57 1.12 M87.5 66.78 C109.61 42.7, 129.82 16.94, 144.57 1.12 M98.13 66.75 C116.73 45.45, 137.67 19.58, 155.2 1.09 M98.13 66.75 C109.81 53.62, 122.55 39, 155.2 1.09 M108.76 66.72 C125.75 45.54, 144.24 26.07, 165.83 1.06 M108.76 66.72 C131.18 42.52, 151.64 17.39, 165.83 1.06 M119.39 66.68 C135.58 47.55, 152.57 29.76, 176.46 1.02 M119.39 66.68 C138.33 44.32, 157.84 20.84, 176.46 1.02 M130.02 66.65 C150.07 44.71, 168.07 24.88, 187.09 0.99 M130.02 66.65 C147.69 47.78, 164.03 28.06, 187.09 0.99 M140.65 66.61 C154.86 52.31, 169.18 36.28, 197.72 0.95 M140.65 66.61 C156.47 49.23, 169.19 32.6, 197.72 0.95 M151.28 66.58 C164.83 51.79, 178.96 34.1, 208.35 0.92 M151.28 66.58 C169.42 45.84, 188.34 24.42, 208.35 0.92 M161.91 66.54 C178.58 48.57, 191.58 34.04, 218.98 0.88 M161.91 66.54 C183.34 41.58, 206.24 15.71, 218.98 0.88 M172.54 66.51 C194.03 42.43, 216.03 14.33, 229.61 0.85 M172.54 66.51 C191.88 44.79, 211.54 20.71, 229.61 0.85 M183.17 66.47 C201.44 44.78, 221.18 23.45, 240.24 0.81 M183.17 66.47 C194.9 52.8, 207.96 37.88, 240.24 0.81 M193.14 67.19 C208.05 50.74, 223.54 32.29, 250.87 0.78 M193.14 67.19 C215.52 41.32, 237.05 17.32, 250.87 0.78 M203.77 67.16 C225.83 42.08, 245.89 19.21, 261.5 0.74 M203.77 67.16 C217.74 50.39, 232.68 35.42, 261.5 0.74 M214.4 67.12 C228.59 52.42, 242.41 35.91, 271.48 1.47 M214.4 67.12 C232.42 45.99, 252.77 22.61, 271.48 1.47 M225.03 67.09 C239.19 50.36, 252.33 31.82, 282.11 1.43 M225.03 67.09 C243.52 44.27, 264.47 19.55, 282.11 1.43 M235.66 67.06 C255.4 47.87, 270.11 26.18, 292.74 1.4 M235.66 67.06 C248.88 51.75, 263.52 35.42, 292.74 1.4 M246.29 67.02 C266.98 39.45, 291.74 16.24, 304.02 0.61 M246.29 67.02 C259.64 51.06, 274.37 34.45, 304.02 0.61 M256.92 66.99 C276.32 45.06, 295.47 22.05, 311.37 4.35 M256.92 66.99 C269 54.46, 281.63 41.13, 311.37 4.35 M267.55 66.95 C282.93 50.91, 296.22 34.51, 316.76 10.35 M267.55 66.95 C280.51 53.13, 291.11 40.66, 316.76 10.35 M278.18 66.92 C285.65 56.31, 297.5 46.79, 316.89 22.39 M278.18 66.92 C289.67 53.64, 302.73 39.5, 316.89 22.39 M288.81 66.88 C295.53 56.6, 303.9 48.98, 317.02 34.43 M288.81 66.88 C296.66 58.77, 303.5 51.71, 317.02 34.43 M299.44 66.85 C306.28 61.18, 310.92 52.11, 317.16 46.47 M299.44 66.85 C305.32 60.88, 308.77 54.84, 317.16 46.47" stroke="#ffec99" stroke-width="1" fill="none"></path><path d="M16.58 0 C97.14 -2.21, 176.51 0.13, 299.45 0 M16.58 0 C124.58 -0.95, 232.17 -0.94, 299.45 0 M299.45 0 C311.23 -1.77, 314.67 7.43, 316.03 16.58 M299.45 0 C312.43 0.68, 316.94 5.58, 316.03 16.58 M316.03 16.58 C317.72 27.61, 316.5 37.14, 316.03 49.75 M316.03 16.58 C315.45 28.44, 315.6 41.86, 316.03 49.75 M316.03 49.75 C316.49 60.34, 311.2 65.53, 299.45 66.33 M316.03 49.75 C316.48 58.54, 311.65 66.12, 299.45 66.33 M299.45 66.33 C202 63.65, 105.68 65.97, 16.58 66.33 M299.45 66.33 C208.19 65.9, 118.77 65.64, 16.58 66.33 M16.58 66.33 C3.61 68.04, -0.58 59.62, 0 49.75 M16.58 66.33 C4.63 64.91, 0.09 59.39, 0 49.75 M0 49.75 C-1.28 37.64, -0.58 26.08, 0 16.58 M0 49.75 C0.75 43.08, -0.47 35.93, 0 16.58 M0 16.58 C-1.92 4.78, 4.56 -0.38, 16.58 0 M0 16.58 C-1.16 4.52, 5.87 -0.22, 16.58 0" stroke="#1e1e1e" stroke-width="2" fill="none"></path></g><g transform="translate(948.1614987589727 466.6844382664153) rotate(0 108.30208587646484 11.5)"><text x="108.30208587646484" y="18.53" font-family="Lilita One, sans-serif, Segoe UI Emoji" font-size="20px" fill="#1e1e1e" text-anchor="middle" style="white-space: pre;" direction="ltr" dominant-baseline="alphabetic">Doc/library/stdtypes.rst</text></g><g stroke-linecap="round" transform="translate(1231.8857403293146 293.68472491974546) rotate(0 158.01552777865413 33.16375654985197)"><path d="M4.41 3.84 C4.41 3.84, 4.41 3.84, 4.41 3.84 M4.41 3.84 C4.41 3.84, 4.41 3.84, 4.41 3.84 M0.61 20.41 C6.34 12.52, 14.5 4.99, 18.32 0.03 M0.61 20.41 C4.13 16.77, 7.72 10.81, 18.32 0.03 M1.4 31.69 C10.42 20.39, 21.49 6.4, 28.95 -0.01 M1.4 31.69 C11.77 18.75, 22.97 6.63, 28.95 -0.01 M1.53 43.73 C9.54 34.89, 19.62 23.41, 39.58 -0.04 M1.53 43.73 C12.47 31, 22.37 18.9, 39.58 -0.04 M1.67 55.77 C19.14 38.26, 33.1 19.91, 50.21 -0.07 M1.67 55.77 C20.36 33.15, 39.93 12.36, 50.21 -0.07 M5.74 63.29 C23.87 42.37, 44.86 18.5, 60.84 -0.11 M5.74 63.29 C20.92 46.22, 35.85 28.44, 60.84 -0.11 M13.09 67.03 C29.78 45.01, 51.15 23.3, 70.82 0.61 M13.09 67.03 C27.79 48.53, 42.6 31.2, 70.82 0.61 M23.72 66.99 C36.27 54.65, 47.75 37.79, 81.45 0.58 M23.72 66.99 C44.51 44.06, 65.78 20.57, 81.45 0.58 M34.35 66.96 C47.1 52.64, 60.13 36.28, 92.08 0.54 M34.35 66.96 C47.04 49.52, 61.24 34.94, 92.08 0.54 M44.98 66.92 C64.82 46.15, 83.5 24.48, 102.71 0.51 M44.98 66.92 C56.68 51.97, 68.28 39.05, 102.71 0.51 M55.61 66.89 C69.74 50.42, 84.6 34.51, 113.34 0.47 M55.61 66.89 C78.78 41.22, 100.74 16.13, 113.34 0.47 M66.24 66.85 C79.55 50, 93.2 35.02, 123.97 0.44 M66.24 66.85 C79.45 51.33, 93.17 34.68, 123.97 0.44 M76.87 66.82 C92.97 49.85, 109.84 30.56, 134.6 0.4 M76.87 66.82 C100.23 41.78, 121.29 15.52, 134.6 0.4 M87.5 66.78 C104.87 47.06, 125.92 24.76, 145.23 0.37 M87.5 66.78 C106.94 44.17, 126.33 21.33, 145.23 0.37 M98.13 66.75 C112.13 52.34, 123.72 36.89, 155.86 0.34 M98.13 66.75 C117 45.95, 134.17 26.26, 155.86 0.34 M108.76 66.72 C131 39.88, 154.27 13.91, 166.49 0.3 M108.76 66.72 C127.81 44.47, 145.98 23.83, 166.49 0.3 M119.39 66.68 C137.66 45.04, 154.87 23.02, 177.12 0.27 M119.39 66.68 C134.74 50.48, 150.2 33.86, 177.12 0.27 M130.02 66.65 C149.98 46.1, 165.02 25.08, 187.75 0.23 M130.02 66.65 C148.4 45.83, 166.85 25.06, 187.75 0.23 M140.65 66.61 C156.94 48.69, 176.39 28.63, 198.38 0.2 M140.65 66.61 C158.43 45.79, 177.1 23.89, 198.38 0.2 M151.28 66.58 C161.84 54.73, 172.85 38.25, 209.01 0.16 M151.28 66.58 C170.29 44.92, 190.68 22.03, 209.01 0.16 M161.91 66.54 C176.48 49.18, 190.12 33.89, 219.64 0.13 M161.91 66.54 C174.64 53.18, 186.59 37.75, 219.64 0.13 M172.54 66.51 C195.99 39.45, 217.65 16.1, 230.27 0.09 M172.54 66.51 C192.28 44.3, 214.21 20.63, 230.27 0.09 M183.17 66.47 C198.82 48.05, 212.52 32.57, 240.9 0.06 M183.17 66.47 C197.9 49.46, 212.59 32.88, 240.9 0.06 M193.14 67.19 C210.57 47.55, 222.72 32.63, 250.87 0.78 M193.14 67.19 C214 41.38, 236.32 17.36, 250.87 0.78 M203.77 67.16 C219.19 48.97, 231.35 34.52, 261.5 0.74 M203.77 67.16 C226.37 43.4, 247.04 17.61, 261.5 0.74 M214.4 67.12 C227.91 49.79, 241.57 34.21, 272.13 0.71 M214.4 67.12 C235.56 41.21, 258.14 15.34, 272.13 0.71 M225.03 67.09 C249.06 40.89, 268.67 15.53, 282.76 0.68 M225.03 67.09 C243.95 46.98, 261.65 27.15, 282.76 0.68 M235.66 67.06 C246.18 53.51, 261.3 38.93, 293.39 0.64 M235.66 67.06 C251.05 51, 264.54 34.92, 293.39 0.64 M246.29 67.02 C264.19 48.65, 282.34 27.78, 304.02 0.61 M246.29 67.02 C257.7 54.22, 269.89 40.53, 304.02 0.61 M256.92 66.99 C269.99 50.34, 286.44 32.2, 311.37 4.35 M256.92 66.99 C274.64 45.98, 293.79 24.87, 311.37 4.35 M267.55 66.95 C276.5 53.8, 285.75 44.39, 316.1 11.1 M267.55 66.95 C277.98 54.7, 288.11 43.11, 316.1 11.1 M278.18 66.92 C292.24 50.93, 303.18 34.99, 316.23 23.14 M278.18 66.92 C291.1 52.73, 303.66 36.72, 316.23 23.14 M288.81 66.88 C293.76 57.87, 302.79 52.28, 316.37 35.19 M288.81 66.88 C297.14 57.65, 306.94 47.37, 316.37 35.19 M299.44 66.85 C305.14 63.15, 309.94 56.12, 316.5 47.23 M299.44 66.85 C303.71 61.69, 307.08 57.08, 316.5 47.23" stroke="#a5d8ff" stroke-width="1" fill="none"></path><path d="M16.58 0 C105.15 0.41, 196.74 -1.67, 299.45 0 M16.58 0 C118.54 -0.15, 219.87 -0.93, 299.45 0 M299.45 0 C311.44 -1.83, 316.16 5.35, 316.03 16.58 M299.45 0 C310.51 -1.88, 314.34 4.1, 316.03 16.58 M316.03 16.58 C317.16 22.81, 316.6 31.32, 316.03 49.75 M316.03 16.58 C316.57 29.81, 316.67 41.36, 316.03 49.75 M316.03 49.75 C315.21 59.44, 309.74 67.54, 299.45 66.33 M316.03 49.75 C316.01 60.68, 310.95 65.44, 299.45 66.33 M299.45 66.33 C217.55 68.9, 132.98 68.14, 16.58 66.33 M299.45 66.33 C229.37 67, 158.72 66.69, 16.58 66.33 M16.58 66.33 C5.25 65.37, -0.69 61.16, 0 49.75 M16.58 66.33 C5.26 67.52, -0.35 61.41, 0 49.75 M0 49.75 C-0.62 36.62, -1.75 22.93, 0 16.58 M0 49.75 C0 40.99, 0.01 31.06, 0 16.58 M0 16.58 C-1.66 6.88, 3.89 1.07, 16.58 0 M0 16.58 C0.54 6.15, 7.28 1.75, 16.58 0" stroke="#1e1e1e" stroke-width="2" fill="none"></path></g><g transform="translate(1295.7450181079685 315.34848146959746) rotate(0 94.15625 11.5)"><text x="94.15625" y="18.53" font-family="Lilita One, sans-serif, Segoe UI Emoji" font-size="20px" fill="#1e1e1e" text-anchor="middle" style="white-space: pre;" direction="ltr" dominant-baseline="alphabetic">Python/bltinmodule.c</text></g><g stroke-linecap="round" transform="translate(1232.717275485345 368.52117609207926) rotate(0 158.01552777865413 33.163756549851996)"><path d="M4.41 3.84 C4.41 3.84, 4.41 3.84, 4.41 3.84 M4.41 3.84 C4.41 3.84, 4.41 3.84, 4.41 3.84 M0.61 20.41 C4.43 13.78, 9.99 7.04, 18.32 0.03 M0.61 20.41 C8.37 12.96, 14.74 4.22, 18.32 0.03 M1.4 31.69 C12.62 19.27, 18.63 9.19, 28.95 -0.01 M1.4 31.69 C6.11 25.47, 13.4 18.99, 28.95 -0.01 M1.53 43.73 C14.37 30.42, 27.47 13.89, 39.58 -0.04 M1.53 43.73 C12.65 31.67, 22.84 20.19, 39.58 -0.04 M1.67 55.77 C20.02 37.38, 33.82 17.31, 50.21 -0.07 M1.67 55.77 C13.07 42.37, 23.82 29.64, 50.21 -0.07 M5.74 63.29 C23.57 43.97, 43.63 22.06, 60.84 -0.11 M5.74 63.29 C24.24 42.69, 42.49 19.55, 60.84 -0.11 M13.09 67.03 C27.97 48.32, 46.35 29.26, 70.82 0.61 M13.09 67.03 C26.62 51.38, 40.32 35.68, 70.82 0.61 M23.72 66.99 C45.86 41.39, 66.36 19.01, 81.45 0.58 M23.72 66.99 C43.17 43.21, 64.62 18.93, 81.45 0.58 M34.35 66.96 C53.46 45.26, 76.79 19.32, 92.08 0.54 M34.35 66.96 C46.8 52.9, 57.92 39.58, 92.08 0.54 M44.98 66.92 C63.43 44.89, 87.01 20.24, 102.71 0.51 M44.98 66.92 C58.03 50.86, 73.18 35.78, 102.71 0.51 M55.61 66.89 C73.23 47.9, 87.05 30.39, 113.34 0.47 M55.61 66.89 C72.9 46.27, 92.22 25.22, 113.34 0.47 M66.24 66.85 C81.57 48.98, 100.96 28.73, 123.97 0.44 M66.24 66.85 C87.72 41.27, 108.98 16.93, 123.97 0.44 M76.87 66.82 C98.75 41.71, 115.86 20.83, 134.6 0.4 M76.87 66.82 C96.9 45.34, 115.89 22.37, 134.6 0.4 M87.5 66.78 C109.33 43.15, 130.4 17.46, 145.23 0.37 M87.5 66.78 C103.94 47.52, 122.29 27.81, 145.23 0.37 M98.13 66.75 C119.76 42.41, 139.74 19.74, 155.86 0.34 M98.13 66.75 C115.02 47.22, 130.93 29.14, 155.86 0.34 M108.76 66.72 C125.57 48.31, 141 30.01, 166.49 0.3 M108.76 66.72 C122.46 50.6, 135.41 35.66, 166.49 0.3 M119.39 66.68 C134.91 48.12, 150.2 31.27, 177.12 0.27 M119.39 66.68 C139.01 43.19, 157.94 20.9, 177.12 0.27 M130.02 66.65 C148.27 46.85, 164.58 26.88, 187.75 0.23 M130.02 66.65 C147.66 45.73, 165.01 24.95, 187.75 0.23 M140.65 66.61 C161.99 41.44, 183.56 15.47, 198.38 0.2 M140.65 66.61 C160.87 42.79, 182.25 18.22, 198.38 0.2 M151.28 66.58 C174.14 43.32, 192.87 16.61, 209.01 0.16 M151.28 66.58 C172.89 41.3, 194.98 15.66, 209.01 0.16 M161.91 66.54 C177.48 47.97, 194.79 29.12, 219.64 0.13 M161.91 66.54 C182.2 45.1, 201.82 22.33, 219.64 0.13 M172.54 66.51 C188.79 46.56, 203.37 28.58, 230.27 0.09 M172.54 66.51 C194.33 40.64, 217.34 14.41, 230.27 0.09 M183.17 66.47 C193.89 54.81, 208.09 40.66, 240.9 0.06 M183.17 66.47 C201.23 44.06, 220.84 23.66, 240.9 0.06 M193.14 67.19 C207.41 54.67, 218.56 38.2, 250.87 0.78 M193.14 67.19 C205.37 51.74, 219.07 37.51, 250.87 0.78 M203.77 67.16 C219.1 50.04, 229.56 37.41, 261.5 0.74 M203.77 67.16 C224.22 43.8, 245.05 19.25, 261.5 0.74 M214.4 67.12 C232.09 50.61, 244.63 30.32, 272.13 0.71 M214.4 67.12 C229.28 50.7, 241.45 36.54, 272.13 0.71 M225.03 67.09 C238.1 51.91, 249.51 40.1, 282.76 0.68 M225.03 67.09 C240.54 47.71, 257.3 27.02, 282.76 0.68 M235.66 67.06 C253.21 44.49, 272.85 25.51, 293.39 0.64 M235.66 67.06 C254.14 45.16, 273.27 24.23, 293.39 0.64 M246.29 67.02 C265.06 44.25, 289.03 18.4, 304.02 0.61 M246.29 67.02 C268.02 40.34, 291.51 13.88, 304.02 0.61 M256.92 66.99 C275.82 45.38, 292.43 23.87, 311.37 4.35 M256.92 66.99 C270.41 50.72, 286.54 33.29, 311.37 4.35 M267.55 66.95 C276.77 55.43, 289.81 42.63, 316.1 11.1 M267.55 66.95 C284.15 48.49, 299.2 30.64, 316.1 11.1 M278.18 66.92 C289.63 56.69, 300.6 44.27, 316.23 23.14 M278.18 66.92 C291.86 50.02, 307.11 33.12, 316.23 23.14 M288.81 66.88 C295.66 58.74, 300.31 50.59, 316.37 35.19 M288.81 66.88 C298.64 54.4, 308.86 43.46, 316.37 35.19 M299.44 66.85 C304.39 59.1, 310.64 52.7, 316.5 47.23 M299.44 66.85 C304.06 61.31, 307.55 55.76, 316.5 47.23" stroke="#ffc9c9" stroke-width="1" fill="none"></path><path d="M16.58 0 C117.75 1.18, 217.59 2.91, 299.45 0 M16.58 0 C119.83 0.13, 222.42 0.75, 299.45 0 M299.45 0 C310.51 -1.64, 314.56 4.29, 316.03 16.58 M299.45 0 C308.44 -0.96, 317.93 6.99, 316.03 16.58 M316.03 16.58 C317.53 24.31, 318.07 35.4, 316.03 49.75 M316.03 16.58 C315.89 29.09, 315.91 43.57, 316.03 49.75 M316.03 49.75 C316.01 60.7, 310.89 65.56, 299.45 66.33 M316.03 49.75 C315.84 59.69, 312.45 67.26, 299.45 66.33 M299.45 66.33 C199.88 66.19, 101.97 66.5, 16.58 66.33 M299.45 66.33 C193.34 66.68, 87.17 67.18, 16.58 66.33 M16.58 66.33 C5.29 67.36, -0.31 61.33, 0 49.75 M16.58 66.33 C7.79 66.02, 1.54 60.04, 0 49.75 M0 49.75 C0.05 39.73, -1.38 29.61, 0 16.58 M0 49.75 C-0.84 37.89, -0.83 25.22, 0 16.58 M0 16.58 C0.47 6.07, 7.05 1.53, 16.58 0 M0 16.58 C-1.7 7.08, 5.78 -0.85, 16.58 0" stroke="#1e1e1e" stroke-width="2" fill="none"></path></g><g transform="translate(1285.9723891404637 390.18493264193125) rotate(0 104.76041412353516 11.5)"><text x="104.76041412353516" y="18.53" font-family="Lilita One, sans-serif, Segoe UI Emoji" font-size="20px" fill="#1e1e1e" text-anchor="middle" style="white-space: pre;" direction="ltr" dominant-baseline="alphabetic">Lib/test/test_builtin.py</text></g><g stroke-linecap="round" transform="translate(1231.8859465081623 447.5153506243014) rotate(0 158.01552777865413 33.163756549851996)"><path d="M4.41 3.84 C4.41 3.84, 4.41 3.84, 4.41 3.84 M4.41 3.84 C4.41 3.84, 4.41 3.84, 4.41 3.84 M1.92 18.9 C8.08 12.13, 9.72 10.48, 17.67 0.78 M1.92 18.9 C7.4 12.74, 11.55 8.05, 17.67 0.78 M2.71 30.18 C6.43 24.25, 12.01 16.17, 28.3 0.75 M2.71 30.18 C10.44 22.36, 16.94 12.9, 28.3 0.75 M2.85 42.22 C16.79 24.33, 32.09 9.76, 38.93 0.71 M2.85 42.22 C14.73 28.58, 26.18 16.47, 38.93 0.71 M2.98 54.26 C17.08 36.88, 35 19.85, 49.56 0.68 M2.98 54.26 C15.16 41.46, 25.9 26.95, 49.56 0.68 M5.74 63.29 C27.76 39.59, 48.17 14, 60.19 0.65 M5.74 63.29 C26.55 40.12, 47.46 15.18, 60.19 0.65 M13.09 67.03 C27.21 47.25, 43.27 29.05, 70.82 0.61 M13.09 67.03 C31.2 47.28, 46.69 28.72, 70.82 0.61 M23.72 66.99 C36.32 55.37, 47.64 38.91, 81.45 0.58 M23.72 66.99 C43.22 44.89, 61.72 22.67, 81.45 0.58 M34.35 66.96 C53.02 42.33, 76.91 19.21, 91.42 1.3 M34.35 66.96 C51.7 47.82, 68.43 27.86, 91.42 1.3 M44.98 66.92 C65.27 40.91, 89.25 14.7, 102.05 1.26 M44.98 66.92 C59.53 50, 74.72 32.41, 102.05 1.26 M55.61 66.89 C72.15 47.79, 90.05 28.29, 112.68 1.23 M55.61 66.89 C74.34 44.26, 94.35 21.48, 112.68 1.23 M66.24 66.85 C87.7 43.09, 106.49 19.2, 123.31 1.19 M66.24 66.85 C80.04 52.41, 92.47 38.2, 123.31 1.19 M76.87 66.82 C90.22 50.6, 101.5 38.85, 133.94 1.16 M76.87 66.82 C97.72 44.84, 117.27 21.19, 133.94 1.16 M87.5 66.78 C108.54 42.51, 129.09 16.58, 144.57 1.12 M87.5 66.78 C106.87 44.15, 125.89 22.89, 144.57 1.12 M98.13 66.75 C115.7 45.74, 135.69 27.15, 155.2 1.09 M98.13 66.75 C110.71 51.59, 124.04 36.56, 155.2 1.09 M108.76 66.72 C125.17 45.51, 144.86 26.19, 165.83 1.06 M108.76 66.72 C122.01 50.54, 135.02 35.59, 165.83 1.06 M119.39 66.68 C135.66 51.19, 151.42 32.64, 176.46 1.02 M119.39 66.68 C137.62 45.12, 155.28 25.84, 176.46 1.02 M130.02 66.65 C148.12 46.64, 166.48 25.78, 187.09 0.99 M130.02 66.65 C147.18 49.1, 163.09 30.02, 187.09 0.99 M140.65 66.61 C158.15 46.91, 173.36 27.2, 197.72 0.95 M140.65 66.61 C159.26 45.71, 175.42 26.76, 197.72 0.95 M151.28 66.58 C172.96 44.07, 192.59 21.2, 208.35 0.92 M151.28 66.58 C170.54 43.71, 190.78 21.5, 208.35 0.92 M161.91 66.54 C183.85 43.29, 201.98 20.23, 218.98 0.88 M161.91 66.54 C182.55 41.68, 205.34 17.2, 218.98 0.88 M172.54 66.51 C186.97 54.42, 198.46 37.22, 229.61 0.85 M172.54 66.51 C192.94 42.13, 214.68 17.02, 229.61 0.85 M183.17 66.47 C205.57 41.79, 228.49 14.05, 240.24 0.81 M183.17 66.47 C196.9 48.14, 213.16 32.48, 240.24 0.81 M193.14 67.19 C214.35 41.89, 239.06 13.81, 250.87 0.78 M193.14 67.19 C207.38 48.82, 223.58 33.04, 250.87 0.78 M203.77 67.16 C218.25 51.5, 229.01 36.37, 261.5 0.74 M203.77 67.16 C222.24 45.08, 241.46 25.54, 261.5 0.74 M214.4 67.12 C234.31 42.86, 254.59 21.31, 271.48 1.47 M214.4 67.12 C225.62 53.18, 236.94 40.44, 271.48 1.47 M225.03 67.09 C239.29 52.16, 254.37 32.72, 282.11 1.43 M225.03 67.09 C244.7 46.25, 263.51 23.85, 282.11 1.43 M235.66 67.06 C250.99 49.89, 266.33 32.39, 292.74 1.4 M235.66 67.06 C252.45 49, 268.15 28.22, 292.74 1.4 M246.29 67.02 C270.46 42.32, 292.69 14.3, 304.02 0.61 M246.29 67.02 C261.3 50.08, 275.83 33.11, 304.02 0.61 M256.92 66.99 C270.55 51.74, 284.16 33.22, 311.37 4.35 M256.92 66.99 C273.62 46.03, 292.4 25.26, 311.37 4.35 M267.55 66.95 C283.98 47.12, 301.55 30.74, 316.76 10.35 M267.55 66.95 C282.48 48.45, 297.37 32.34, 316.76 10.35 M278.18 66.92 C293.86 50.61, 305.67 32.36, 316.89 22.39 M278.18 66.92 C286.8 56.73, 297.22 45.89, 316.89 22.39 M288.81 66.88 C298.24 58.88, 305.73 48.54, 317.02 34.43 M288.81 66.88 C297.05 59, 303.48 49.08, 317.02 34.43 M299.44 66.85 C303.45 59.74, 308.59 56.07, 317.16 46.47 M299.44 66.85 C303.66 61.69, 309.33 56.36, 317.16 46.47" stroke="#ffec99" stroke-width="1" fill="none"></path><path d="M16.58 0 C91.58 -0.6, 164.05 -0.9, 299.45 0 M16.58 0 C75.59 -0.43, 134.04 -0.28, 299.45 0 M299.45 0 C308.71 -0.84, 317.68 6.8, 316.03 16.58 M299.45 0 C309.64 0.81, 316.93 7.12, 316.03 16.58 M316.03 16.58 C318.3 26.51, 316.92 32.42, 316.03 49.75 M316.03 16.58 C315.89 24.22, 316.1 31.57, 316.03 49.75 M316.03 49.75 C315.87 59.83, 312.2 67.14, 299.45 66.33 M316.03 49.75 C317.16 58.65, 310.48 65.13, 299.45 66.33 M299.45 66.33 C217.93 65.86, 134.64 66.39, 16.58 66.33 M299.45 66.33 C228.09 67.11, 156.79 66.92, 16.58 66.33 M16.58 66.33 C7.49 66.06, 1.34 60.14, 0 49.75 M16.58 66.33 C5.62 64.26, -0.46 60.51, 0 49.75 M0 49.75 C1.84 39.74, 1.05 27.98, 0 16.58 M0 49.75 C0.51 37.83, 1.03 26.13, 0 16.58 M0 16.58 C-1.48 6.88, 5.75 -0.74, 16.58 0 M0 16.58 C-1.4 4.16, 7.09 -2.04, 16.58 0" stroke="#1e1e1e" stroke-width="2" fill="none"></path></g><g transform="translate(1279.1618884103514 469.1791071741534) rotate(0 110.73958587646484 11.5)"><text x="110.73958587646484" y="18.53" font-family="Lilita One, sans-serif, Segoe UI Emoji" font-size="20px" fill="#1e1e1e" text-anchor="middle" style="white-space: pre;" direction="ltr" dominant-baseline="alphabetic">Doc/library/functions.rst</text></g></svg>
